<?xml version="1.0" encoding="utf-8"?>
<!-- Generator: Adobe Illustrator 23.0.2, SVG Export Plug-In . SVG Version: 6.00 Build 0)  -->
<svg version="1.1" id="Layer_1" xmlns="http://www.w3.org/2000/svg" xmlns:xlink="http://www.w3.org/1999/xlink" x="0px" y="0px"
	 viewBox="0 0 17.4 17.4" style="enable-background:new 0 0 17.4 17.4;" xml:space="preserve">
<style type="text/css">
	.st0{fill:#FFFFFF;}
</style>
<path class="st0" d="M0,8.7c0,4.8,3.9,8.7,8.7,8.7c4.8,0,8.7-3.9,8.7-8.7c0-4.8-3.9-8.7-8.7-8.7C3.9,0,0,3.9,0,8.7z M15.7,8.7
	c0,3.9-3.2,7-7,7c-3.9,0-7-3.1-7-7c0-3.9,3.1-7,7-7C12.6,1.7,15.7,4.9,15.7,8.7z M9.1,4.2C8.9,4,8.6,4,8.5,4.2L7.8,4.9
	C7.6,5,7.6,5.3,7.8,5.4l2.5,2.4H4.6C4.4,7.8,4.2,8,4.2,8.2v1c0,0.2,0.2,0.4,0.4,0.4h5.6L7.8,12c-0.2,0.1-0.2,0.4,0,0.6l0.7,0.7
	c0.2,0.2,0.5,0.2,0.6,0L13.4,9c0.2-0.2,0.2-0.4,0-0.6L9.1,4.2z"/>
</svg>
