<?xml version="1.0" encoding="utf-8"?>
<!-- Generator: Adobe Illustrator 23.0.2, SVG Export Plug-In . SVG Version: 6.00 Build 0)  -->
<svg version="1.1" id="Layer_1" xmlns="http://www.w3.org/2000/svg" xmlns:xlink="http://www.w3.org/1999/xlink" x="0px" y="0px"
	 viewBox="0 0 44 44" style="enable-background:new 0 0 44 44;" xml:space="preserve">
<style type="text/css">
	.st0{fill-rule:evenodd;clip-rule:evenodd;fill:#FFFFFF;}
	.st1{fill:#FFFFFF;}
</style>
<path class="st0" d="M22,2C11,2,2,11,2,22s9,20,20,20s20-9,20-20S33,2,22,2z M0,22C0,9.8,9.8,0,22,0c12.2,0,22,9.8,22,22
	c0,12.2-9.8,22-22,22C9.8,44,0,34.2,0,22z"/>
<path class="st1" d="M21.6,19.8l-1.8-0.6c-0.2,0-0.4-0.2-0.4-0.5c0-0.3,0.2-0.6,0.5-0.6h1.1c0.2,0,0.4,0.1,0.5,0.2
	c0.1,0.1,0.3,0.1,0.4,0l0.5-0.5c0.2-0.1,0.2-0.4,0-0.5c-0.4-0.3-0.8-0.5-1.3-0.5v-0.7c0-0.2-0.1-0.3-0.3-0.3h-0.7
	c-0.2,0-0.3,0.2-0.3,0.3v0.7c-0.9,0-1.7,0.8-1.7,1.8c0,0.8,0.5,1.5,1.3,1.8l1.8,0.6c0.2,0,0.4,0.2,0.4,0.5c0,0.3-0.2,0.5-0.5,0.5H20
	c-0.2,0-0.4,0-0.5-0.1c-0.1-0.1-0.3-0.1-0.4,0l-0.5,0.5c-0.2,0.1-0.2,0.4,0,0.5c0.4,0.3,0.8,0.5,1.3,0.5v0.7c0,0.2,0.1,0.3,0.3,0.3
	h0.7c0.2,0,0.3-0.1,0.3-0.3v-0.7c0.9,0,1.7-0.8,1.7-1.8C22.9,20.8,22.4,20,21.6,19.8z M32.8,30.9l-5-5c-0.1-0.1-0.2-0.2-0.4-0.2H27
	c1.3-1.5,2.1-3.4,2.1-5.6c0-4.7-3.8-8.5-8.5-8.5c-4.7,0-8.5,3.9-8.5,8.5c0,4.7,3.8,8.5,8.5,8.5c2.1,0,4.1-0.8,5.6-2.1v0.5
	c0,0.1,0.1,0.2,0.2,0.4l5,5c0.2,0.2,0.5,0.2,0.7,0l0.9-0.9C33,31.4,33,31.1,32.8,30.9z M20.5,26.7c-3.6,0-6.5-2.9-6.5-6.6
	c0-3.6,2.9-6.6,6.5-6.6c3.7,0,6.6,3,6.6,6.6C27.1,23.8,24.1,26.7,20.5,26.7z"/>
</svg>
