<?xml version="1.0" encoding="utf-8"?>
<!-- Generator: Adobe Illustrator 23.0.2, SVG Export Plug-In . SVG Version: 6.00 Build 0)  -->
<svg version="1.1" id="Layer_1" xmlns="http://www.w3.org/2000/svg" xmlns:xlink="http://www.w3.org/1999/xlink" x="0px" y="0px"
	 viewBox="0 0 47.5 44" style="enable-background:new 0 0 47.5 44;" xml:space="preserve">
<style type="text/css">
	.st0{fill-rule:evenodd;clip-rule:evenodd;fill:#FFFFFF;}
</style>
<path class="st0" d="M38.2,19.8c0.4-0.4,1-0.5,1.4-0.1l3.2,2.8l2.8-3.2c0.4-0.4,1-0.5,1.4-0.1c0.4,0.4,0.5,1,0.1,1.4l-3.5,4
	c-0.4,0.4-1,0.5-1.4,0.1l-4-3.5C37.9,20.9,37.9,20.3,38.2,19.8z"/>
<path class="st0" d="M22,20c-1.1,0-2,0.9-2,2s0.9,2,2,2s2-0.9,2-2S23.1,20,22,20z M18,22c0-2.2,1.8-4,4-4s4,1.8,4,4s-1.8,4-4,4
	S18,24.2,18,22z"/>
<path class="st0" d="M22,3c0.6,0,1,0.4,1,1v15c0,0.6-0.4,1-1,1s-1-0.4-1-1V4C21,3.4,21.4,3,22,3z"/>
<path class="st0" d="M24,22c0-0.6,0.4-1,1-1h8c0.6,0,1,0.4,1,1s-0.4,1-1,1h-8C24.4,23,24,22.6,24,22z"/>
<path class="st0" d="M21.9,0L22,0l0.1,0c0.6,0,1,0.5,1,1c0,0.6-0.5,1-1,1L22,2l-0.1,0c-0.6,0-1-0.4-1-1C20.9,0.5,21.3,0,21.9,0z
	 M16.6,1.7c0.2,0.5-0.1,1.1-0.6,1.3c-0.1,0-0.1,0-0.2,0.1c-0.5,0.2-1.1-0.1-1.3-0.6c-0.2-0.5,0.1-1.1,0.6-1.3c0.1,0,0.1,0,0.2-0.1
	C15.8,0.9,16.4,1.2,16.6,1.7z M27.4,1.7c0.2-0.5,0.7-0.8,1.3-0.6c0.1,0,0.1,0,0.2,0.1c0.5,0.2,0.8,0.7,0.6,1.3
	c-0.2,0.5-0.7,0.8-1.3,0.6c-0.1,0-0.1,0-0.2-0.1C27.6,2.8,27.3,2.2,27.4,1.7z M33.4,4.4c0.3-0.4,0.9-0.5,1.4-0.2
	c0.1,0,0.1,0.1,0.2,0.1c0.4,0.3,0.5,1,0.2,1.4c-0.3,0.4-1,0.5-1.4,0.2c-0.1,0-0.1-0.1-0.2-0.1C33.2,5.4,33.1,4.8,33.4,4.4z
	 M10.6,4.4c0.3,0.4,0.2,1.1-0.2,1.4c-0.1,0-0.1,0.1-0.2,0.1C9.7,6.2,9.1,6.1,8.8,5.7C8.4,5.2,8.5,4.6,9,4.3c0.1,0,0.1-0.1,0.2-0.1
	C9.6,3.8,10.2,3.9,10.6,4.4z M38.3,8.8c0.4-0.3,1.1-0.2,1.4,0.2c0,0.1,0.1,0.1,0.1,0.2c0.3,0.4,0.2,1.1-0.2,1.4
	c-0.4,0.3-1.1,0.2-1.4-0.2c0-0.1-0.1-0.1-0.1-0.2C37.8,9.7,37.9,9.1,38.3,8.8z M5.7,8.8c0.4,0.3,0.5,1,0.2,1.4
	c0,0.1-0.1,0.1-0.1,0.2c-0.3,0.4-0.9,0.5-1.4,0.2c-0.4-0.3-0.5-0.9-0.2-1.4C4.2,9.1,4.2,9,4.3,9C4.6,8.5,5.2,8.4,5.7,8.8z
	 M41.6,14.5c0.5-0.2,1.1,0.1,1.3,0.6c0,0.1,0,0.1,0.1,0.2c0.2,0.5-0.1,1.1-0.6,1.3c-0.5,0.2-1.1-0.1-1.3-0.6c0-0.1,0-0.1-0.1-0.2
	C40.8,15.2,41.1,14.6,41.6,14.5z M2.4,14.5c0.5,0.2,0.8,0.7,0.6,1.3c0,0.1,0,0.1-0.1,0.2c-0.2,0.5-0.7,0.8-1.3,0.6S0.9,15.8,1,15.3
	c0-0.1,0-0.1,0.1-0.2C1.3,14.6,1.8,14.3,2.4,14.5z M1,20.9c0.6,0,1,0.5,1,1L2,22l0,0.1c0,0.6-0.4,1-1,1c-0.6,0-1-0.4-1-1L0,22l0-0.1
	C0,21.3,0.5,20.9,1,20.9z M43,20.9c0.6,0,1,0.4,1,1l0,0.1l0,0.1c0,0.6-0.5,1-1,1c-0.6,0-1-0.5-1-1l0-0.1l0-0.1
	C42,21.3,42.4,20.9,43,20.9z M1.7,27.4c0.5-0.2,1.1,0.1,1.3,0.6c0,0.1,0,0.1,0.1,0.2c0.2,0.5-0.1,1.1-0.6,1.3
	c-0.5,0.2-1.1-0.1-1.3-0.6c0-0.1,0-0.1-0.1-0.2C0.9,28.2,1.2,27.6,1.7,27.4z M42.3,27.4c0.5,0.2,0.8,0.7,0.6,1.3
	c0,0.1,0,0.1-0.1,0.2c-0.2,0.5-0.7,0.8-1.3,0.6c-0.5-0.2-0.8-0.7-0.6-1.3c0-0.1,0-0.1,0.1-0.2C41.2,27.6,41.8,27.3,42.3,27.4z
	 M4.4,33.4c0.4-0.3,1.1-0.2,1.4,0.2c0,0.1,0.1,0.1,0.1,0.2c0.3,0.4,0.2,1.1-0.2,1.4c-0.4,0.3-1.1,0.2-1.4-0.2c0-0.1-0.1-0.1-0.1-0.2
	C3.8,34.4,3.9,33.8,4.4,33.4z M39.6,33.4c0.4,0.3,0.5,0.9,0.2,1.4c0,0.1-0.1,0.1-0.1,0.2c-0.3,0.4-1,0.5-1.4,0.2
	c-0.4-0.3-0.5-1-0.2-1.4c0-0.1,0.1-0.1,0.1-0.2C38.6,33.2,39.2,33.1,39.6,33.4z M35.2,38.3c0.3,0.4,0.2,1.1-0.2,1.4
	c-0.1,0-0.1,0.1-0.2,0.1c-0.4,0.3-1.1,0.2-1.4-0.2s-0.2-1.1,0.2-1.4c0.1,0,0.1-0.1,0.2-0.1C34.3,37.8,34.9,37.9,35.2,38.3z
	 M8.8,38.3c0.3-0.4,1-0.5,1.4-0.2c0.1,0,0.1,0.1,0.2,0.1c0.4,0.3,0.5,0.9,0.2,1.4c-0.3,0.4-0.9,0.5-1.4,0.2c-0.1,0-0.1-0.1-0.2-0.1
	C8.5,39.4,8.4,38.8,8.8,38.3z M14.5,41.6c0.2-0.5,0.7-0.8,1.3-0.6c0.1,0,0.1,0,0.2,0.1c0.5,0.2,0.8,0.7,0.6,1.3
	c-0.2,0.5-0.7,0.8-1.3,0.6c-0.1,0-0.1,0-0.2-0.1C14.6,42.7,14.3,42.2,14.5,41.6z M29.5,41.6c0.2,0.5-0.1,1.1-0.6,1.3
	c-0.1,0-0.1,0-0.2,0.1c-0.5,0.2-1.1-0.1-1.3-0.6c-0.2-0.5,0.1-1.1,0.6-1.3c0.1,0,0.1,0,0.2-0.1C28.8,40.8,29.4,41.1,29.5,41.6z
	 M20.9,43c0-0.6,0.5-1,1-1l0.1,0l0.1,0c0.6,0,1,0.4,1,1c0,0.6-0.4,1-1,1L22,44l-0.1,0C21.3,44,20.9,43.5,20.9,43z"/>
<path class="st0" d="M22,2C11,2,2,11,2,22s9,20,20,20c0.6,0,1,0.4,1,1s-0.4,1-1,1C9.8,44,0,34.2,0,22C0,9.8,9.8,0,22,0
	c12.2,0,22,9.8,22,22c0,0.6-0.4,1-1,1s-1-0.4-1-1C42,11,33,2,22,2z"/>
</svg>
