<?xml version="1.0" encoding="utf-8"?>
<!-- Generator: Adobe Illustrator 23.0.2, SVG Export Plug-In . SVG Version: 6.00 Build 0)  -->
<svg version="1.1" id="Layer_1" xmlns="http://www.w3.org/2000/svg" xmlns:xlink="http://www.w3.org/1999/xlink" x="0px" y="0px"
	 viewBox="0 0 270 56" style="enable-background:new 0 0 270 56;" xml:space="preserve">
<style type="text/css">
	.st0{fill-rule:evenodd;clip-rule:evenodd;fill:#FF9A01;}
	.st1{fill-rule:evenodd;clip-rule:evenodd;fill:#FFFFFF;filter:url(#Adobe_OpacityMaskFilter);}
	.st2{mask:url(#path-1-inside-1_1_);fill:#FFBD49;}
	.st3{fill:#FFFFFF;}
	.st4{fill:none;stroke:#FFBD49;stroke-width:2;stroke-dasharray:4,4;}
</style>
<g>
	<path class="st0" d="M49,0H6C2.7,0,0,2.7,0,6v44c0,3.3,2.7,6,6,6h43c0,0,0,0,0,0c0-2.2,1.8-4,4-4s4,1.8,4,4c0,0,0,0,0,0h207
		c3.3,0,6-2.7,6-6V6c0-3.3-2.7-6-6-6H57c0,2.2-1.8,4-4,4S49,2.2,49,0z"/>
	<defs>
		<filter id="Adobe_OpacityMaskFilter" filterUnits="userSpaceOnUse" x="-2" y="-2" width="274" height="60">
			<feColorMatrix  type="matrix" values="1 0 0 0 0  0 1 0 0 0  0 0 1 0 0  0 0 0 1 0"/>
		</filter>
	</defs>
	<mask maskUnits="userSpaceOnUse" x="-2" y="-2" width="274" height="60" id="path-1-inside-1_1_">
		<path class="st1" d="M49,0H6C2.7,0,0,2.7,0,6v44c0,3.3,2.7,6,6,6h43c0,0,0,0,0,0c0-2.2,1.8-4,4-4s4,1.8,4,4c0,0,0,0,0,0h207
			c3.3,0,6-2.7,6-6V6c0-3.3-2.7-6-6-6H57c0,2.2-1.8,4-4,4S49,2.2,49,0z"/>
	</mask>
	<path class="st2" d="M49,0l2,0l0-2h-2V0z M49,56v2h2v-2H49z M57,56h-2v2h2V56z M57,0v-2h-2l0,2L57,0z M6,2h43v-4H6V2z M2,6
		c0-2.2,1.8-4,4-4v-4C1.6-2-2,1.6-2,6H2z M2,50V6h-4v44H2z M6,54c-2.2,0-4-1.8-4-4h-4c0,4.4,3.6,8,8,8V54z M49,54H6v4h43V54z M51,56
		L51,56L51,56L51,56L51,56L51,56L51,56L51,56L51,56C51,56,51,56,51,56L51,56L51,56L51,56L51,56L51,56L51,56L51,56L51,56L51,56L51,56
		L51,56L51,56L51,56L51,56L51,56L51,56L51,56C51,56,51,56,51,56L51,56L51,56L51,56L51,56L51,56L51,56L51,56L51,56L51,56L51,56L51,56
		L51,56L51,56L51,56L51,56L51,56C51,56,51,56,51,56L51,56L51,56L51,56L51,56L51,56L51,56L51,56L51,56L51,56L51,56L51,56L51,56L51,56
		L51,56L51,56L51,56L51,56C51,56,51,56,51,56L51,56L51,56L51,56L51,56L51,56L51,56L51,56L51,56L51,56L51,56L51,56L51,56L51,56L51,56
		L51,56L51,56L51,56L51,56L51,56L51,56L51,56L51,56L51,56L51,56L51,56L51,56L51,56L51,56L51,56L51,56L51,56L51,56L51,56L51,56
		C51,56,51,56,51,56L51,56L51,56L51,56L51,56L51,56L51,56L51,56L51,56L51,56L51,56L51,56L51,56L51,56L51,56L51,56L51,56L51,56L51,56
		L51,56L51,56L51,56L51,56L51,56L51,56L51,56L51,56L51,56L51,56L51,56L51,56L51,56L51,56L51,56L51,56C51,56,51,56,51,56L51,56L51,56
		L51,56L51,56L51,56L51,56L51,56L51,56L51,56L51,56L51,56L51,56L51,56L51,56L51,56L51,56L51,56L51,56L51,56L51,56L51,56L51,56L51,56
		L51,56L51,56L51,56L51,56L51,56L51,56L51,56L51,56L51,56L51,56L51,56C51,56,51,56,51,56L51,56L51,56L51,56L51,56L51,56L51,56L51,56
		L51,56L51,56L51,56L51,56L51,56L51,56L51,56L51,56L51,56L51,56L51,56L51,56L51,56L51,56L51,56L51,56L51,56L51,56L51,56L51,56L51,56
		L51,56L51,56L51,56L51,56L51,56C51,56,51,56,51,56L51,56L51,56L51,56L51,56L51,56L51,56L51,56L51,56L51,56L51,56L51,56L51,56L51,56
		L51,56L51,56L51,56L51,56L51,56L51,56L51,56L51,56L51,56L51,56L51,56L51,56L51,56L51,56L51,56L51,56L51,56L51,56L51,56L51,56L51,56
		C51,56,51,56,51,56L51,56L51,56L51,56L51,56L51,56L51,56L51,56L51,56L51,56L51,56L51,56L51,56L51,56L51,56L51,56L51,56L51,56L51,56
		L51,56L51,56L51,56L51,56L51,56L51,56L51,56L51,56L51,56L51,56L51,56L51,56L51,56L51,56L51,56L51,56C51,56,51,56,51,56L51,56L51,56
		L51,56L51,56L51,56L51,56L51,56L51,56L51,56L51,56L51,56L51,56L51,56L51,56L51,56L51,56L51,56L51,56L51,56L51,56L51,56L51,56L51,56
		L51,56L51,56L51,56L51,56L51,56L51,56L51,56L51,56L51,56L51,56L51,56C51,56,51,56,51,56L51,56L51,56L51,56L51,56L51,56L51,56L51,56
		L51,56L51,56L51,56L51,56L51,56L51,56L51,56L51,56L51,56L51,56C51,56,51,56,51,56L51,56L51,56L51,56L51,56L51,56L51,56L51,56L51,56
		L51,56L51,56L51,56L51,56L51,56L51,56L51,56L51,56C51,56,51,56,51,56L51,56L51,56L51,56L51,56L51,56L51,56L51,56L51,56L51,56L51,56
		L51,56L51,56L51,56L51,56L51,56L51,56L51,56C51,56,51,56,51,56L51,56L51,56L51,56L51,56L51,56L51,56L51,56L51,56L51,56L51,56L51,56
		L51,56L51,56L51,56L51,56L51,56C51,56,51,56,51,56L51,56L51,56L51,56L51,56L51,56L51,56L51,56L51,56L51,56L51,56L51,56L51,56L51,56
		L51,56L51,56L51,56L51,56C51,56,51,56,51,56L51,56L51,56L51,56L51,56L51,56L51,56L51,56L51,56L51,56L51,56L51,56L51,56L51,56L51,56
		L51,56L51,56C51,56,51,56,51,56L51,56L51,56L51,56L51,56L51,56L51,56L51,56L51,56L51,56L51,56L51,56L51,56L51,56L51,56L51,56L51,56
		L51,56C51,56,51,56,51,56L51,56L51,56L51,56L51,56L51,56L51,56L51,56L51,56L51,56L51,56L51,56L51,56L51,56L51,56L51,56L51,56L51,56
		L51,56L51,56L51,56L51,56L51,56L51,56L51,56L51,56L51,56L51,56L51,56L51,56L51,56L51,56L51,56L51,56L51,56C51,56,51,56,51,56L51,56
		L51,56L51,56L51,56L51,56L51,56L51,56L51,56L51,56L51,56L51,56L51,56L51,56L51,56L51,56L51,56L51,56L51,56L51,56L51,56L51,56L51,56
		L51,56L51,56L51,56L51,56L51,56L51,56L51,56L51,56L51,56L51,56L51,56L51,56C51,56,51,56,51,56L51,56L51,56L51,56L51,56L51,56L51,56
		L51,56L51,56L51,56L51,56L51,56L51,56L51,56l-4,0l0,0l0,0l0,0l0,0l0,0l0,0l0,0l0,0l0,0l0,0l0,0l0,0l0,0c0,0,0,0,0,0l0,0l0,0l0,0
		l0,0l0,0l0,0l0,0l0,0l0,0l0,0l0,0l0,0l0,0l0,0l0,0l0,0l0,0v0l0,0l0,0l0,0l0,0l0,0l0,0l0,0l0,0l0,0l0,0l0,0l0,0l0,0l0,0l0,0l0,0
		c0,0,0,0,0,0l0,0l0,0l0,0l0,0l0,0l0,0l0,0l0,0l0,0l0,0l0,0l0,0l0,0l0,0l0,0l0,0l0,0v0l0,0l0,0l0,0l0,0l0,0l0,0l0,0l0,0l0,0l0,0l0,0
		l0,0l0,0l0,0l0,0l0,0c0,0,0,0,0,0l0,0l0,0l0,0l0,0l0,0l0,0l0,0l0,0l0,0l0,0l0,0l0,0l0,0l0,0l0,0l0,0l0,0c0,0,0,0,0,0l0,0l0,0l0,0
		l0,0l0,0l0,0l0,0l0,0l0,0l0,0l0,0l0,0l0,0l0,0l0,0l0,0c0,0,0,0,0,0l0,0l0,0l0,0l0,0l0,0l0,0l0,0l0,0l0,0l0,0l0,0l0,0l0,0l0,0l0,0
		l0,0l0,0c0,0,0,0,0,0l0,0l0,0l0,0l0,0l0,0l0,0l0,0l0,0l0,0l0,0l0,0l0,0l0,0l0,0l0,0l0,0c0,0,0,0,0,0l0,0l0,0l0,0l0,0l0,0l0,0l0,0
		l0,0l0,0l0,0l0,0l0,0l0,0l0,0l0,0l0,0l0,0c0,0,0,0,0,0l0,0l0,0l0,0l0,0l0,0l0,0l0,0l0,0l0,0l0,0l0,0l0,0l0,0l0,0l0,0l0,0
		c0,0,0,0,0,0l0,0l0,0l0,0l0,0l0,0l0,0l0,0l0,0l0,0l0,0l0,0l0,0l0,0l0,0l0,0l0,0l0,0c0,0,0,0,0,0l0,0l0,0l0,0l0,0l0,0l0,0l0,0l0,0
		l0,0l0,0l0,0l0,0l0,0l0,0l0,0l0,0v0l0,0l0,0l0,0l0,0l0,0l0,0l0,0l0,0l0,0l0,0l0,0l0,0l0,0l0,0l0,0l0,0l0,0c0,0,0,0,0,0l0,0l0,0l0,0
		l0,0l0,0l0,0l0,0l0,0l0,0l0,0l0,0l0,0l0,0l0,0l0,0l0,0v0l0,0l0,0l0,0l0,0l0,0l0,0l0,0l0,0l0,0l0,0l0,0l0,0l0,0l0,0l0,0l0,0l0,0
		c0,0,0,0,0,0l0,0l0,0l0,0l0,0l0,0l0,0l0,0l0,0l0,0l0,0l0,0l0,0l0,0l0,0l0,0l0,0v0l0,0l0,0l0,0l0,0l0,0l0,0l0,0l0,0l0,0l0,0l0,0l0,0
		l0,0l0,0l0,0l0,0l0,0c0,0,0,0,0,0l0,0l0,0l0,0l0,0l0,0l0,0l0,0l0,0l0,0l0,0l0,0l0,0l0,0l0,0l0,0l0,0v0l0,0l0,0l0,0l0,0l0,0l0,0l0,0
		l0,0l0,0l0,0l0,0l0,0l0,0l0,0l0,0l0,0c0,0,0,0,0,0l0,0l0,0l0,0l0,0l0,0l0,0l0,0l0,0l0,0l0,0l0,0l0,0l0,0l0,0l0,0l0,0l0,0v0l0,0l0,0
		l0,0l0,0l0,0l0,0l0,0l0,0l0,0l0,0l0,0l0,0l0,0l0,0l0,0l0,0c0,0,0,0,0,0l0,0l0,0l0,0l0,0l0,0l0,0l0,0l0,0l0,0l0,0l0,0l0,0l0,0l0,0
		l0,0l0,0l0,0v0l0,0l0,0l0,0l0,0l0,0l0,0l0,0l0,0l0,0l0,0l0,0l0,0l0,0l0,0l0,0l0,0c0,0,0,0,0,0l0,0l0,0l0,0l0,0l0,0l0,0l0,0l0,0l0,0
		l0,0l0,0l0,0l0,0l0,0l0,0l0,0l0,0v0l0,0l0,0l0,0l0,0l0,0l0,0l0,0l0,0l0,0l0,0l0,0l0,0l0,0l0,0l0,0l0,0c0,0,0,0,0,0l0,0l0,0l0,0l0,0
		l0,0l0,0l0,0l0,0l0,0l0,0l0,0l0,0l0,0l0,0l0,0l0,0l0,0c0,0,0,0,0,0l0,0l0,0l0,0l0,0l0,0l0,0l0,0l0,0l0,0l0,0l0,0l0,0l0,0l0,0l0,0
		l0,0c0,0,0,0,0,0l0,0l0,0l0,0l0,0l0,0l0,0l0,0l0,0l0,0l0,0l0,0l0,0l0,0l0,0l0,0l0,0l0,0c0,0,0,0,0,0l0,0l0,0l0,0l0,0l0,0l0,0l0,0
		l0,0H51z M51,56c0-1.1,0.9-2,2-2v-4c-3.3,0-6,2.7-6,6H51z M53,54c1.1,0,2,0.9,2,2h4c0-3.3-2.7-6-6-6V54z M55,56L55,56L55,56L55,56
		L55,56L55,56L55,56L55,56L55,56L55,56L55,56L55,56L55,56L55,56C55,56,55,56,55,56L55,56L55,56L55,56L55,56L55,56L55,56L55,56L55,56
		L55,56L55,56L55,56L55,56L55,56L55,56L55,56L55,56L55,56L55,56L55,56L55,56L55,56L55,56L55,56L55,56L55,56L55,56L55,56L55,56L55,56
		L55,56L55,56L55,56L55,56L55,56C55,56,55,56,55,56L55,56L55,56L55,56L55,56L55,56L55,56L55,56L55,56L55,56L55,56L55,56L55,56L55,56
		L55,56L55,56L55,56L55,56L55,56L55,56L55,56L55,56L55,56L55,56L55,56L55,56L55,56L55,56L55,56L55,56L55,56L55,56L55,56L55,56L55,56
		C55,56,55,56,55,56L55,56L55,56L55,56L55,56L55,56L55,56L55,56L55,56L55,56L55,56L55,56L55,56L55,56L55,56L55,56L55,56L55,56
		C55,56,55,56,55,56L55,56L55,56L55,56L55,56L55,56L55,56L55,56L55,56L55,56L55,56L55,56L55,56L55,56L55,56L55,56L55,56
		C55,56,55,56,55,56L55,56L55,56L55,56L55,56L55,56L55,56L55,56L55,56L55,56L55,56L55,56L55,56L55,56L55,56L55,56L55,56L55,56
		C55,56,55,56,55,56L55,56L55,56L55,56L55,56L55,56L55,56L55,56L55,56L55,56L55,56L55,56L55,56L55,56L55,56L55,56L55,56
		C55,56,55,56,55,56L55,56L55,56L55,56L55,56L55,56L55,56L55,56L55,56L55,56L55,56L55,56L55,56L55,56L55,56L55,56L55,56L55,56
		C55,56,55,56,55,56L55,56L55,56L55,56L55,56L55,56L55,56L55,56L55,56L55,56L55,56L55,56L55,56L55,56L55,56L55,56L55,56
		C55,56,55,56,55,56L55,56L55,56L55,56L55,56L55,56L55,56L55,56L55,56L55,56L55,56L55,56L55,56L55,56L55,56L55,56L55,56L55,56
		C55,56,55,56,55,56L55,56L55,56L55,56L55,56L55,56L55,56L55,56L55,56L55,56L55,56L55,56L55,56L55,56L55,56L55,56L55,56L55,56L55,56
		L55,56L55,56L55,56L55,56L55,56L55,56L55,56L55,56L55,56L55,56L55,56L55,56L55,56L55,56L55,56L55,56C55,56,55,56,55,56L55,56L55,56
		L55,56L55,56L55,56L55,56L55,56L55,56L55,56L55,56L55,56L55,56L55,56L55,56L55,56L55,56L55,56L55,56L55,56L55,56L55,56L55,56L55,56
		L55,56L55,56L55,56L55,56L55,56L55,56L55,56L55,56L55,56L55,56L55,56C55,56,55,56,55,56L55,56L55,56L55,56L55,56L55,56L55,56L55,56
		L55,56L55,56L55,56L55,56L55,56L55,56L55,56L55,56L55,56L55,56L55,56L55,56L55,56L55,56L55,56L55,56L55,56L55,56L55,56L55,56L55,56
		L55,56L55,56L55,56L55,56L55,56L55,56C55,56,55,56,55,56L55,56L55,56L55,56L55,56L55,56L55,56L55,56L55,56L55,56L55,56L55,56L55,56
		L55,56L55,56L55,56L55,56L55,56L55,56L55,56L55,56L55,56L55,56L55,56L55,56L55,56L55,56L55,56L55,56L55,56L55,56L55,56L55,56L55,56
		C55,56,55,56,55,56L55,56L55,56L55,56L55,56L55,56L55,56L55,56L55,56L55,56L55,56L55,56L55,56L55,56L55,56L55,56L55,56L55,56L55,56
		L55,56L55,56L55,56L55,56L55,56L55,56L55,56L55,56L55,56L55,56L55,56L55,56L55,56L55,56L55,56L55,56C55,56,55,56,55,56L55,56L55,56
		L55,56L55,56L55,56L55,56L55,56L55,56L55,56L55,56L55,56L55,56L55,56L55,56L55,56L55,56L55,56L55,56L55,56L55,56L55,56L55,56L55,56
		L55,56L55,56L55,56L55,56L55,56L55,56L55,56L55,56L55,56L55,56L55,56C55,56,55,56,55,56L55,56L55,56L55,56L55,56L55,56L55,56L55,56
		L55,56L55,56L55,56L55,56L55,56L55,56L55,56L55,56L55,56L55,56L55,56L55,56L55,56L55,56L55,56L55,56L55,56L55,56L55,56L55,56L55,56
		L55,56L55,56L55,56L55,56L55,56L55,56C55,56,55,56,55,56L55,56L55,56L55,56L55,56L55,56L55,56L55,56L55,56L55,56L55,56L55,56L55,56
		L55,56L55,56L55,56L55,56L55,56C55,56,55,56,55,56L55,56L55,56L55,56L55,56L55,56L55,56L55,56L55,56L55,56L55,56L55,56L55,56L55,56
		L55,56L55,56L55,56C55,56,55,56,55,56L55,56L55,56L55,56L55,56L55,56L55,56L55,56L55,56L55,56L55,56L55,56L55,56L55,56L55,56L55,56
		L55,56L55,56C55,56,55,56,55,56L55,56L55,56L55,56L55,56L55,56L55,56L55,56L55,56l4,0l0,0l0,0l0,0l0,0l0,0l0,0l0,0l0,0c0,0,0,0,0,0
		l0,0l0,0l0,0l0,0l0,0l0,0l0,0l0,0l0,0l0,0l0,0l0,0l0,0l0,0l0,0l0,0l0,0c0,0,0,0,0,0l0,0l0,0l0,0l0,0l0,0l0,0l0,0l0,0l0,0l0,0l0,0
		l0,0l0,0l0,0l0,0l0,0c0,0,0,0,0,0l0,0l0,0l0,0l0,0l0,0l0,0l0,0l0,0l0,0l0,0l0,0l0,0l0,0l0,0l0,0l0,0l0,0c0,0,0,0,0,0l0,0l0,0l0,0
		l0,0l0,0l0,0l0,0l0,0l0,0l0,0l0,0l0,0l0,0l0,0l0,0l0,0v0l0,0l0,0l0,0l0,0l0,0l0,0l0,0l0,0l0,0l0,0l0,0l0,0l0,0l0,0l0,0l0,0l0,0
		c0,0,0,0,0,0l0,0l0,0l0,0l0,0l0,0l0,0l0,0l0,0l0,0l0,0l0,0l0,0l0,0l0,0l0,0l0,0v0l0,0l0,0l0,0l0,0l0,0l0,0l0,0l0,0l0,0l0,0l0,0l0,0
		l0,0l0,0l0,0l0,0l0,0c0,0,0,0,0,0l0,0l0,0l0,0l0,0l0,0l0,0l0,0l0,0l0,0l0,0l0,0l0,0l0,0l0,0l0,0l0,0v0l0,0l0,0l0,0l0,0l0,0l0,0l0,0
		l0,0l0,0l0,0l0,0l0,0l0,0l0,0l0,0l0,0l0,0c0,0,0,0,0,0l0,0l0,0l0,0l0,0l0,0l0,0l0,0l0,0l0,0l0,0l0,0l0,0l0,0l0,0l0,0l0,0v0l0,0l0,0
		l0,0l0,0l0,0l0,0l0,0l0,0l0,0l0,0l0,0l0,0l0,0l0,0l0,0l0,0c0,0,0,0,0,0l0,0l0,0l0,0l0,0l0,0l0,0l0,0l0,0l0,0l0,0l0,0l0,0l0,0l0,0
		l0,0l0,0l0,0v0l0,0l0,0l0,0l0,0l0,0l0,0l0,0l0,0l0,0l0,0l0,0l0,0l0,0l0,0l0,0l0,0c0,0,0,0,0,0l0,0l0,0l0,0l0,0l0,0l0,0l0,0l0,0l0,0
		l0,0l0,0l0,0l0,0l0,0l0,0l0,0l0,0v0l0,0l0,0l0,0l0,0l0,0l0,0l0,0l0,0l0,0l0,0l0,0l0,0l0,0l0,0l0,0l0,0c0,0,0,0,0,0l0,0l0,0l0,0l0,0
		l0,0l0,0l0,0l0,0l0,0l0,0l0,0l0,0l0,0l0,0l0,0l0,0l0,0v0l0,0l0,0l0,0l0,0l0,0l0,0l0,0l0,0l0,0l0,0l0,0l0,0l0,0l0,0l0,0l0,0
		c0,0,0,0,0,0l0,0l0,0l0,0l0,0l0,0l0,0l0,0l0,0l0,0l0,0l0,0l0,0l0,0l0,0l0,0l0,0l0,0c0,0,0,0,0,0l0,0l0,0l0,0l0,0l0,0l0,0l0,0l0,0
		l0,0l0,0l0,0l0,0l0,0l0,0l0,0l0,0c0,0,0,0,0,0l0,0l0,0l0,0l0,0l0,0l0,0l0,0l0,0l0,0l0,0l0,0l0,0l0,0l0,0l0,0l0,0l0,0c0,0,0,0,0,0
		l0,0l0,0l0,0l0,0l0,0l0,0l0,0l0,0l0,0l0,0l0,0l0,0l0,0l0,0l0,0l0,0c0,0,0,0,0,0l0,0l0,0l0,0l0,0l0,0l0,0l0,0l0,0l0,0l0,0l0,0l0,0
		l0,0l0,0l0,0l0,0l0,0c0,0,0,0,0,0l0,0l0,0l0,0l0,0l0,0l0,0l0,0l0,0l0,0l0,0l0,0l0,0l0,0l0,0l0,0l0,0c0,0,0,0,0,0l0,0l0,0l0,0l0,0
		l0,0l0,0l0,0l0,0l0,0l0,0l0,0l0,0l0,0l0,0l0,0l0,0l0,0c0,0,0,0,0,0l0,0l0,0l0,0l0,0l0,0l0,0l0,0l0,0l0,0l0,0l0,0l0,0l0,0l0,0l0,0
		l0,0v0l0,0l0,0l0,0l0,0l0,0l0,0l0,0l0,0l0,0l0,0l0,0l0,0l0,0l0,0l0,0l0,0l0,0c0,0,0,0,0,0l0,0l0,0l0,0l0,0l0,0l0,0l0,0l0,0l0,0l0,0
		l0,0l0,0l0,0l0,0l0,0l0,0v0l0,0l0,0l0,0l0,0l0,0l0,0l0,0l0,0l0,0l0,0l0,0l0,0l0,0l0,0l0,0l0,0l0,0c0,0,0,0,0,0l0,0l0,0l0,0l0,0l0,0
		l0,0l0,0l0,0l0,0l0,0l0,0l0,0l0,0H55z M264,54H57v4h207V54z M268,50c0,2.2-1.8,4-4,4v4c4.4,0,8-3.6,8-8H268z M268,6v44h4V6H268z
		 M264,2c2.2,0,4,1.8,4,4h4c0-4.4-3.6-8-8-8V2z M57,2h207v-4H57V2z M55,0c0,1.1-0.9,2-2,2v4c3.3,0,6-2.7,6-6L55,0z M53,2
		c-1.1,0-2-0.9-2-2l-4,0c0,3.3,2.7,6,6,6V2z"/>
</g>
<path class="st3" d="M23.5,26.5c2.5,0,4.5-2,4.5-4.5c0-2.5-2-4.5-4.5-4.5c-2.5,0-4.5,2-4.5,4.5C19,24.5,21,26.5,23.5,26.5z
	 M23.5,19.7c1.2,0,2.2,1,2.2,2.2c0,1.3-1,2.2-2.2,2.2c-1.3,0-2.2-1-2.2-2.2C21.2,20.8,22.2,19.7,23.5,19.7z M32.5,29.5
	c-2.5,0-4.5,2-4.5,4.5c0,2.5,2,4.5,4.5,4.5c2.5,0,4.5-2,4.5-4.5C37,31.5,35,29.5,32.5,29.5z M32.5,36.2c-1.3,0-2.2-1-2.2-2.2
	c0-1.2,1-2.2,2.2-2.2c1.2,0,2.2,1,2.2,2.2C34.7,35.3,33.7,36.2,32.5,36.2z M36.9,18.4c0.3-0.4,0-0.9-0.4-0.9h-1.7
	c-0.1,0-0.3,0.1-0.4,0.2L19.1,37.7c-0.3,0.4,0,0.8,0.5,0.8h1.6c0.2,0,0.3,0,0.5-0.2L36.9,18.4z"/>
<path class="st4" d="M53,50.5v-45"/>
</svg>
