<svg width="470" height="389" viewBox="0 0 470 389" fill="none" xmlns="http://www.w3.org/2000/svg">
<path d="M470 80.8418H323.881V368.426H470V80.8418Z" fill="#EBEBEB"/>
<path d="M436.246 105.213H401.161V140.313H436.246V105.213Z" fill="#F5F5F5"/>
<path d="M392.875 105.213H357.791V140.313H392.875V105.213Z" fill="#F5F5F5"/>
<path d="M392.875 148.602H357.791V183.701H392.875V148.602Z" fill="#F5F5F5"/>
<path d="M436.246 148.602H401.161V183.701H436.246V148.602Z" fill="#F5F5F5"/>
<path d="M343.062 227.294C343.062 230.466 340.504 233.025 337.334 233.025C334.163 233.025 331.605 230.466 331.605 227.294C331.605 224.122 334.163 221.563 337.334 221.563C340.504 221.563 343.062 224.122 343.062 227.294Z" fill="#E0E0E0"/>
<path d="M93.3312 62.3852C93.3312 59.2129 90.774 56.6546 87.6031 56.6546C86.9894 56.6546 86.4779 56.757 85.9665 56.8593C86.0688 56.2453 86.0688 55.7336 86.0688 55.1197C86.0688 48.3658 80.6476 42.9422 73.8967 42.9422C73.0784 42.9422 72.3624 43.0445 71.6463 43.1469C69.8052 40.0769 66.4297 38.0303 62.5428 38.0303C56.7125 38.0303 52.0073 42.7375 51.905 48.5704C51.8027 48.5704 51.8027 48.5704 51.7004 48.5704C46.2792 48.5704 41.8809 52.9707 41.8809 58.3943C41.8809 63.8178 46.2792 68.2181 51.7004 68.2181H87.7054C90.8763 68.0134 93.3312 65.5575 93.3312 62.3852Z" fill="#F5F5F5"/>
<path d="M254.174 67.8621C254.174 65.9178 252.64 64.3828 250.697 64.3828C250.39 64.3828 249.981 64.4851 249.674 64.4851C249.776 64.1781 249.776 63.7688 249.776 63.3595C249.776 59.2662 246.4 55.8893 242.309 55.8893C241.798 55.8893 241.388 55.8893 240.979 55.9916C239.854 54.1496 237.808 52.8193 235.353 52.8193C231.773 52.8193 228.909 55.6846 228.807 59.2662H228.705C225.432 59.2662 222.67 61.9269 222.67 65.3038C222.67 68.5784 225.329 71.3414 228.705 71.3414H250.799C252.64 71.3414 254.174 69.8064 254.174 67.8621Z" fill="#F5F5F5"/>
<path d="M316 388.628C397.186 388.628 463 383.479 463 377.128C463 370.777 397.186 365.628 316 365.628C234.814 365.628 169 370.777 169 377.128C169 383.479 234.814 388.628 316 388.628Z" fill="#F5F5F5"/>
<path d="M252.045 369.468L260.535 370.389L262.171 351.969L253.579 351.048L252.045 369.468Z" fill="#EBB376"/>
<path d="M209.288 368.854H217.573L218.289 349.615H210.004L209.288 368.854Z" fill="#EBB376"/>
<path d="M218.699 367.932H208.572C208.266 367.932 207.959 368.136 207.856 368.546L206.22 375.913C206.117 376.527 206.527 377.244 207.14 377.346C207.243 377.346 207.345 377.346 207.447 377.346C210.72 377.244 213.073 377.141 217.164 377.141C219.722 377.141 227.291 377.448 230.769 377.448C234.246 377.448 234.656 373.969 233.326 373.662C226.882 372.23 222.074 370.388 220.028 368.546C219.722 368.034 219.21 367.932 218.699 367.932Z" fill="#263238"/>
<path d="M219.313 369.058C219.211 369.058 219.211 368.956 219.211 368.853C219.211 368.751 219.211 368.649 219.313 368.649C219.62 368.444 222.28 366.807 223.2 367.318C223.405 367.421 223.507 367.625 223.507 367.83C223.609 368.239 223.405 368.649 223.098 368.853C222.586 369.16 222.075 369.365 221.461 369.263C220.745 369.365 220.029 369.263 219.313 369.058ZM219.927 368.751C220.848 369.058 221.973 369.058 222.893 368.649C223.098 368.444 223.2 368.239 223.2 367.932C223.2 367.728 223.098 367.728 223.098 367.728C222.996 367.728 222.893 367.625 222.893 367.625C221.666 367.83 220.745 368.239 219.927 368.751Z" fill="#FF4647"/>
<path d="M219.211 369.058C219.108 369.058 219.108 368.956 219.108 368.853C219.108 368.751 219.313 366.397 220.234 365.579C220.438 365.374 220.745 365.272 221.052 365.374C221.359 365.374 221.666 365.579 221.666 365.886C221.87 366.807 220.131 368.546 219.313 369.058H219.211C219.313 369.058 219.313 369.058 219.211 369.058ZM220.54 365.886C219.927 366.602 219.62 367.523 219.518 368.444C220.336 367.83 221.461 366.397 221.359 365.886C221.359 365.783 221.359 365.681 221.052 365.681H220.95C220.847 365.681 220.745 365.783 220.54 365.886Z" fill="#FF4647"/>
<path d="M261.455 367.626H251.328C251.021 367.626 250.715 367.831 250.612 368.24L248.976 375.608C248.873 376.222 249.282 376.938 249.896 377.041C249.998 377.041 250.101 377.041 250.203 377.041C253.476 376.938 255.829 376.836 259.92 376.836C262.477 376.836 270.047 377.143 273.524 377.143C277.002 377.143 277.411 373.664 276.082 373.357C269.638 371.924 264.83 370.082 262.784 368.24C262.477 367.831 261.966 367.626 261.455 367.626Z" fill="#263238"/>
<path d="M262.069 368.751C261.967 368.751 261.967 368.649 261.967 368.547C261.967 368.444 261.967 368.342 262.069 368.342C262.376 368.137 265.035 366.5 265.956 367.012C266.161 367.114 266.263 367.319 266.263 367.523C266.365 367.933 266.161 368.342 265.854 368.547C265.342 368.854 264.831 369.058 264.217 368.956C263.501 369.058 262.785 368.956 262.069 368.751ZM262.581 368.547C263.501 368.854 264.626 368.854 265.547 368.444C265.751 368.24 265.854 368.035 265.854 367.728C265.854 367.523 265.751 367.523 265.751 367.523C265.649 367.523 265.547 367.421 265.547 367.421C264.422 367.523 263.501 367.933 262.581 368.547Z" fill="#FF4647"/>
<path d="M261.967 368.853C261.864 368.853 261.864 368.751 261.864 368.648C261.864 368.546 262.069 366.192 262.989 365.374C263.194 365.169 263.501 365.067 263.808 365.169C264.115 365.169 264.421 365.374 264.421 365.681C264.626 366.602 262.887 368.341 262.069 368.853H261.967C262.069 368.853 262.069 368.853 261.967 368.853ZM263.296 365.578C262.683 366.295 262.376 367.216 262.273 368.137C263.092 367.523 264.217 366.09 264.115 365.578C264.115 365.476 264.115 365.374 263.808 365.374H263.705C263.603 365.476 263.399 365.476 263.296 365.578Z" fill="#FF4647"/>
<path opacity="0.2" d="M253.579 351.048L262.171 351.969L261.353 361.486L252.761 360.565L253.579 351.048Z" fill="black"/>
<path opacity="0.2" d="M210.005 349.615H218.29L217.881 359.541H209.596L210.005 349.615Z" fill="black"/>
<path d="M213.763 211.615H257.726C261.918 236.262 275.093 276.703 265.687 354.621L250.76 352.631C250.76 352.631 252.001 296.275 238.914 258.034C237.381 278.481 235.643 300.254 234.007 311.858C230.224 340.373 222.03 355.615 222.03 355.615H207.001C207.001 355.615 209.98 343.026 211.412 314.953C213.048 284.449 213.763 217.804 213.763 211.615Z" fill="#263238"/>
<path opacity="0.2" d="M213.799 211.615H257.758C261.949 236.267 275.086 276.685 265.681 354.62L250.756 352.631C250.756 352.631 252.033 296.293 238.948 258.045C237.414 278.495 235.676 300.273 234.041 311.88C230.258 340.401 222.029 355.615 222.029 355.615H207.001C207.001 355.615 210.016 343.054 211.448 314.976C213.083 284.465 213.799 217.806 213.799 211.615Z" fill="white"/>
<path d="M259.307 141.994C259.307 141.994 285.902 167.065 298.176 171.261C310.45 175.457 342.057 191.011 342.057 191.011L346.865 187.225C346.865 187.02 350.445 189.783 350.445 191.625C350.445 192.955 346.967 204.519 346.251 204.519C342.875 204.519 339.091 196.742 339.091 196.742C339.091 196.742 298.687 186.201 291.425 183.029C284.163 179.857 254.295 156.525 254.295 156.525L259.307 141.994Z" fill="#EBB376"/>
<path d="M253.374 135.955C259.409 135.751 291.527 163.892 293.982 166.757C296.437 169.622 321.395 178.116 324.156 182.311C327.021 186.609 322.724 191.624 315.871 192.238C309.018 192.852 261.557 171.567 254.295 161.129C247.032 150.691 253.374 135.955 253.374 135.955Z" fill="#FF4647"/>
<path opacity="0.2" d="M253.374 135.955C259.409 135.751 291.527 163.892 293.982 166.757C296.437 169.622 321.395 178.116 324.156 182.311C327.021 186.609 322.724 191.624 315.871 192.238C309.018 192.852 261.557 171.567 254.295 161.129C247.032 150.691 253.374 135.955 253.374 135.955Z" fill="black"/>
<path d="M269.024 158.98L272.502 230.305H320.168L356.582 221.607V154.477L305.643 154.272L269.024 158.98Z" fill="#FF4647"/>
<path opacity="0.6" d="M269.024 158.98L272.502 230.305H320.168L356.582 221.607V154.477L305.643 154.272L269.024 158.98Z" fill="white"/>
<path opacity="0.2" d="M269.024 158.979L317.304 160.617L320.168 230.305H272.502L269.024 158.979Z" fill="white"/>
<path opacity="0.4" d="M317.304 160.617L356.582 154.477L305.643 154.272L269.024 158.98L317.304 160.617Z" fill="white"/>
<path opacity="0.2" d="M287.027 159.594L293.267 158.57L300.938 158.98L293.983 159.798V163.687L287.437 163.278L287.027 159.594Z" fill="black"/>
<path opacity="0.2" d="M323.544 154.375L321.498 154.784H328.351L330.908 154.375H323.544Z" fill="black"/>
<path opacity="0.2" d="M320.168 166.347L320.679 173.306L333.772 171.054V164.198L320.168 166.347Z" fill="black"/>
<path opacity="0.2" d="M340.625 214.852V223.243L354.945 219.866V212.294L340.625 214.852Z" fill="black"/>
<path opacity="0.2" d="M304.108 212.294C304.108 212.294 305.438 216.49 307.995 217.82V225.085L306.052 227.132H312.803L309.223 224.881L309.12 217.922C309.12 217.922 312.189 216.592 312.803 212.396H309.12L308.507 214.648L309.734 214.75L308.507 217.206V215.978H307.586L308.507 212.499H304.108V212.294Z" fill="black"/>
<path opacity="0.2" d="M239.188 266.816C241.132 272.035 242.769 278.584 244.098 285.85C245.326 268.965 240.416 251.159 240.416 251.159L239.188 266.816Z" fill="black"/>
<path d="M253.375 135.956C253.375 135.956 225.348 134.626 204.481 139.845C204.481 139.845 210.823 196.844 211.232 225.497C211.232 228.055 213.38 230.101 216.04 229.999L258.08 228.566C260.637 228.464 262.58 226.315 262.478 223.757C261.864 208.509 259.512 158.879 253.375 135.956Z" fill="#FF4647"/>
<path d="M212.46 228.566V233.376L261.762 230.92L261.455 227.031L212.46 228.566Z" fill="#263238"/>
<path d="M235.679 147.519C235.679 147.519 245.089 189.782 243.759 229.077" stroke="#263238" stroke-miterlimit="10"/>
<path d="M203.766 162.972C203.766 162.972 212.562 187.122 215.119 192.136C217.677 197.253 268.616 202.165 268.616 202.165C268.616 202.165 279.867 209.43 281.913 209.123C283.856 208.816 288.664 199.197 286.618 198.174C284.572 197.15 278.333 190.089 274.957 190.192C271.582 190.294 268.616 194.08 268.616 194.08C268.616 194.08 226.678 182.005 224.428 181.187C222.791 180.573 216.142 157.139 216.142 157.139L203.766 162.972Z" fill="#EBB376"/>
<path d="M204.583 139.947C197.628 140.152 195.071 151.306 203.765 176.275C209.391 192.341 222.79 200.834 243.759 204.518C264.728 208.304 265.137 196.127 260.739 191.931C256.341 187.736 232.303 181.494 228.416 178.014C224.529 174.535 219.108 139.538 204.583 139.947Z" fill="#FF4647"/>
<path d="M260.739 191.932L259.409 203.29L262.989 204.518L264.217 191.932H260.739Z" fill="#263238"/>
<path opacity="0.2" d="M204.583 139.947C197.628 140.152 195.071 151.306 203.765 176.275C209.391 192.341 222.79 200.834 243.759 204.518C264.728 208.304 265.137 196.127 260.739 191.931C256.341 187.736 232.303 181.494 228.416 178.014C224.529 174.535 219.108 139.538 204.583 139.947Z" fill="black"/>
<path d="M220.438 135.956C220.438 135.956 234.349 148.85 236.701 147.52C239.054 146.189 239.77 136.775 239.77 136.775L220.438 135.956Z" fill="white"/>
<path d="M220.438 137.082C224.529 140.766 234.349 139.435 234.349 139.435C234.349 139.435 240.486 137.696 239.258 135.854C235.576 135.24 233.837 133.602 233.121 131.351C232.712 130.123 232.61 128.69 232.712 127.155C232.814 126.337 232.917 125.621 233.019 124.802L220.744 115.694C222.483 121.732 224.427 132.681 220.438 137.082Z" fill="#EBB376"/>
<path opacity="0.2" d="M223.711 121.526C224.222 128.894 230.257 130.941 233.224 131.35C232.814 130.122 232.712 128.69 232.814 127.155L223.711 121.526Z" fill="black"/>
<path d="M244.884 98.8096C244.884 98.8096 246.725 107.201 245.293 113.238C243.759 119.276 242.02 119.89 240.076 120.299C238.133 120.709 238.235 99.5259 238.235 99.5259L244.884 98.8096Z" fill="#FF4647"/>
<path opacity="0.5" d="M243.145 100.037C243.145 100.037 246.009 108.326 244.475 114.364C242.94 120.401 241.202 121.015 239.258 121.424C237.315 121.834 237.417 100.651 237.417 100.651L243.145 100.037Z" fill="black"/>
<path d="M242.123 96.0469C242.123 96.0469 245.703 106.996 240.486 112.42C235.269 117.741 231.689 96.7632 231.689 96.7632L242.123 96.0469Z" fill="#263238"/>
<path d="M224.631 124.29C228.211 127.974 233.121 128.281 237.008 126.337C239.463 125.109 241.611 122.858 242.634 119.992C242.736 119.583 242.941 119.174 243.043 118.867C244.884 111.499 243.759 99.3214 235.781 95.9445C230.053 93.5908 223.506 96.2515 221.051 101.982C220.335 103.619 220.029 105.359 220.233 107.099C220.54 115.183 220.438 120.095 224.631 124.29Z" fill="#EBB376"/>
<path d="M232.61 109.35C232.61 109.964 232.917 110.578 233.429 110.578C233.838 110.578 234.247 110.066 234.247 109.35C234.247 108.634 233.94 108.122 233.429 108.122C232.917 108.122 232.61 108.634 232.61 109.35Z" fill="#263238"/>
<path d="M240.179 109.35C240.179 109.964 240.486 110.578 240.997 110.578C241.406 110.578 241.815 110.066 241.815 109.35C241.815 108.634 241.508 108.122 240.997 108.122C240.486 108.122 240.179 108.736 240.179 109.35Z" fill="#263238"/>
<path d="M237.725 109.657C238.543 111.704 239.566 113.648 240.896 115.388C239.975 116.002 238.747 116.309 237.725 116.002V109.657Z" fill="#D58745"/>
<path d="M230.257 106.894C230.359 106.894 230.564 106.894 230.666 106.792C231.28 105.973 232.201 105.461 233.223 105.461C233.428 105.461 233.633 105.359 233.633 105.052C233.633 104.847 233.53 104.643 233.223 104.643C231.996 104.643 230.769 105.257 230.053 106.28C229.95 106.485 229.95 106.689 230.155 106.792C230.155 106.894 230.155 106.894 230.257 106.894Z" fill="#263238"/>
<path d="M243.452 106.791C243.554 106.791 243.656 106.791 243.656 106.791C243.861 106.689 243.963 106.484 243.861 106.28C243.35 105.154 242.327 104.335 240.997 104.028C240.792 104.028 240.588 104.131 240.588 104.335C240.588 104.54 240.69 104.745 240.895 104.745C241.918 104.949 242.736 105.666 243.145 106.587C243.145 106.689 243.247 106.791 243.452 106.791Z" fill="#263238"/>
<path d="M225.347 119.275C225.347 119.275 226.574 124.801 232.098 126.234C236.701 127.462 238.747 125.108 238.747 125.108C238.747 125.108 235.167 129.202 229.541 126.643C225.449 124.801 223.097 120.606 223.097 120.606L225.347 119.275Z" fill="#263238"/>
<path d="M226.166 96.7627L226.779 100.344C225.654 101.061 224.938 102.391 225.552 103.824C226.882 106.791 225.347 111.601 223.097 113.647C223.097 113.647 222.995 112.317 221.869 112.726C220.744 113.136 221.358 119.992 223.711 123.164C223.711 123.164 220.335 120.299 218.085 113.238C216.039 106.689 215.63 101.061 216.857 98.5023L226.166 96.7627Z" fill="#263238"/>
<path d="M216.551 113.75C217.472 115.592 219.108 117.025 221.052 117.741C223.609 118.662 225.143 116.308 224.53 113.852C224.018 111.601 221.972 108.326 219.313 108.633C216.551 108.736 215.426 111.396 216.551 113.75Z" fill="#EBB376"/>
<path d="M245.089 100.447C245.089 100.447 228.212 99.9351 227.189 103.21C226.268 106.484 227.086 113.341 227.393 118.048C227.598 121.322 224.938 122.857 222.381 123.062C222.074 123.062 221.87 123.062 221.563 123.062C220.642 123.062 219.824 122.755 219.21 122.448C216.142 120.606 212.459 117.741 210.414 109.35C207.652 98.4001 212.869 86.632 228.519 86.4273C244.168 86.325 245.089 100.447 245.089 100.447Z" fill="#FF4647"/>
<path opacity="0.5" d="M244.168 100.652C244.168 100.652 228.211 99.9352 227.291 103.21C226.37 106.484 227.189 113.341 227.495 118.048C227.7 121.323 225.041 122.858 222.483 123.062C223.609 122.858 224.734 122.039 224.734 119.992C224.836 117.434 223.097 106.177 224.734 103.926C226.37 101.777 231.792 100.038 237.417 99.6282C242.941 99.2189 244.168 100.652 244.168 100.652Z" fill="black"/>
<path d="M222.791 100.139C222.791 100.139 221.154 102.288 221.972 103.516C222.791 104.847 248.158 102.698 248.465 102.084C248.771 101.47 245.601 100.344 245.191 100.037C244.68 99.7301 244.578 96.9671 243.657 96.6601C242.737 96.3531 229.951 95.5345 222.791 100.139Z" fill="#263238"/>
<path d="M224.836 101.47C224.939 101.88 224.632 102.187 224.325 102.187C223.916 102.289 223.609 101.982 223.609 101.675C223.507 101.266 223.814 100.959 224.12 100.959C224.427 100.856 224.734 101.061 224.836 101.47Z" fill="#FF4647"/>
<path d="M238.134 117.537C237.725 118.663 237.316 120.607 237.316 120.607C237.111 120.607 236.906 120.607 236.702 120.607C234.145 120.505 233.019 119.584 232.508 118.663C232.201 118.151 232.201 117.537 232.201 117.128C232.201 116.616 232.303 116.207 232.303 116.207C233.633 117.026 235.986 117.333 237.213 117.435C237.725 117.537 238.134 117.537 238.134 117.537Z" fill="#263238"/>
<path d="M237.213 117.537L236.906 118.458C234.554 118.356 232.815 117.947 232.099 117.128C232.099 116.616 232.201 116.207 232.201 116.207C233.531 117.128 235.986 117.435 237.213 117.537Z" fill="white"/>
<path d="M236.702 120.607C234.144 120.505 233.019 119.584 232.508 118.663C233.326 118.765 234.451 118.97 235.27 119.379C235.986 119.686 236.395 120.198 236.702 120.607Z" fill="#DE5753"/>
<path d="M217.881 137.389L219.211 132.682C219.211 132.682 233.428 137.901 235.679 147.417C235.679 147.417 234.656 135.854 238.134 132.682L240.589 135.752C240.589 135.752 240.895 147.213 236.702 148.645C232.508 150.18 217.881 137.389 217.881 137.389Z" fill="#FF4647"/>
<path opacity="0.2" d="M217.881 137.389L219.211 132.682C219.211 132.682 233.428 137.901 235.679 147.417C235.679 147.417 234.656 135.854 238.134 132.682L240.589 135.752C240.589 135.752 240.895 147.213 236.702 148.645C232.508 150.18 217.881 137.389 217.881 137.389Z" fill="black"/>
<path d="M266.978 360.36L248.566 357.7L249.078 352.583L268.308 355.039L266.978 360.36Z" fill="#FF4647"/>
<path opacity="0.6" d="M266.978 360.36L248.566 357.7L249.078 352.583L268.308 355.039L266.978 360.36Z" fill="white"/>
<path d="M223.507 358.006H205.606V352.582L224.223 352.275L223.507 358.006Z" fill="#FF4647"/>
<path opacity="0.6" d="M223.507 358.006H205.606V352.582L224.223 352.275L223.507 358.006Z" fill="white"/>
<path d="M104.703 355.396C162.529 355.396 209.406 350.188 209.406 343.763C209.406 337.337 162.529 332.129 104.703 332.129C46.8771 332.129 0 337.337 0 343.763C0 350.188 46.8771 355.396 104.703 355.396Z" fill="#F5F5F5"/>
<path d="M85.2399 182.795H62.9014V219.758H85.2399V182.795Z" fill="#B8B8B8"/>
<path d="M88.0621 182.796H60.0801V196.687H88.0621V182.796Z" fill="#FF9A01"/>
<path d="M58.9037 215.757H30.6865V247.305H58.9037V215.757Z" fill="#B8B8B8"/>
<path d="M44.7955 139.476H37.7412V215.756H44.7955V139.476Z" fill="#A1A1A1"/>
<path d="M52.0855 139.476H45.0312V215.756H52.0855V139.476Z" fill="#8A8A8A"/>
<path d="M21.5166 252.249V342.185H178.827V252.249L100.289 217.169L21.5166 252.249Z" fill="#FFF4E3"/>
<path d="M100.289 210.577L21.5166 245.657V252.249L100.289 217.169L178.827 252.249V245.657L100.289 210.577Z" fill="#FF9A01"/>
<path d="M156.489 329.235H21.5166V342.184H156.489V329.235Z" fill="#B8B8B8"/>
<path d="M116.514 263.55H83.8291V329.236H116.514V263.55Z" fill="#5C5C5C"/>
<path d="M116.514 241.654H83.8291V250.365H116.514V241.654Z" fill="#5C5C5C"/>
<path d="M99.1135 243.303H86.1807V248.247H99.1135V243.303Z" fill="white"/>
<path d="M114.398 243.303H101.465V248.247H114.398V243.303Z" fill="white"/>
<path d="M62.6658 259.312H44.7949V307.105H62.6658V259.312Z" fill="#5C5C5C"/>
<path d="M155.548 259.312H137.677V307.105H155.548V259.312Z" fill="#5C5C5C"/>
<path d="M159.075 308.862H149.199V347.003H159.075V308.862Z" fill="#A6A6A6"/>
<path d="M168.951 308.862H159.075V347.003H168.951V308.862Z" fill="#909090"/>
<path d="M184.235 308.862H174.359V347.003H184.235V308.862Z" fill="#A6A6A6"/>
<path d="M194.111 308.862H184.235V347.003H194.111V308.862Z" fill="#909090"/>
<path d="M116.514 329.235V342.184H129.447L116.514 329.235Z" fill="#8A8A8A"/>
<path d="M124.039 342.184H76.54L83.8295 329.235H116.514L124.039 342.184Z" fill="#E7E7E7"/>
<path d="M174.595 329.235H168.951V342.184H174.595V329.235Z" fill="#8A8A8A"/>
<path d="M100.29 202.809L16.1084 240.243V248.483L100.29 210.813V202.809Z" fill="#3C474C"/>
<path d="M100.289 202.809V210.813L184.235 248.483V240.243L100.289 202.809Z" fill="#263238"/>
<path d="M341.951 187.272C341.951 187.272 342.258 184.022 341.337 182.939C340.415 181.856 330.075 175.455 329.563 176.145C329.051 176.834 326.901 182.151 327.004 183.628C327.106 185.105 335.091 191.9 336.218 191.013C337.446 190.127 341.951 187.272 341.951 187.272Z" fill="#B97964"/>
<path d="M390.155 172.093C382.261 172.93 368.626 197.518 364.833 197.309C360.937 197.099 338.896 184.648 338.896 184.648L335 190.612C335 190.612 359.502 208.504 366.268 208.086C372.932 207.667 392 183.811 392 183.811L390.155 172.093Z" fill="#B97964"/>
<path d="M391.317 333.437C397.84 340.283 410.164 353.636 415.26 358.171C420.356 362.792 423.006 365.616 423.006 365.616L428 363.22C428 363.22 423.312 357.059 416.993 348.501C411.591 341.228 398.553 325.222 392.54 316.921C384.794 306.225 387.502 310.874 385.769 307.451C384.546 304.969 384.675 304.484 388.446 295.67C392.318 286.684 396.497 278.213 396.497 278.213L382.738 258.616C382.738 258.616 377.133 271.623 372.139 285.401C368.877 294.386 369.157 294.872 368.137 301.033C366.812 309.59 375.112 316.322 391.317 333.437Z" fill="#B97964"/>
<path opacity="0.2" d="M375 280.622L391.702 293.093C395.693 282.181 400 271.892 400 271.892L385.819 248.093C385.924 248.093 380.147 263.89 375 280.622Z" fill="black"/>
<path d="M399 371.932L404.917 372.616C404.917 372.616 418.18 342.442 417.976 313.783C417.976 313.783 422.261 306.748 425.015 291.178C427.056 279.458 428.076 266.369 425.321 256.616L404.917 264.316L404.509 289.98L404.509 305.143L399 371.932Z" fill="#B97964"/>
<path opacity="0.2" d="M405 296.637L425.059 298.093C427.055 283.85 428.052 267.944 425.358 256.093L405.399 265.449L405 296.637Z" fill="black"/>
<path d="M426.276 355.644C425.678 355.234 420.694 362.825 420.694 362.825C420.694 362.825 421.79 370.827 419.598 375.957C417.405 381.086 421.691 380.676 425.279 375.752C428.868 370.827 431.659 367.134 434.25 363.646C436.842 360.261 432.356 360.158 426.276 355.644Z" fill="#263238"/>
<path d="M418.718 368.212C418.514 368.212 418.207 368.11 418.002 367.803C417.798 367.598 417.798 367.291 417.798 367.086C417.9 366.575 418.309 365.858 418.821 365.347C418.105 365.654 417.286 365.961 416.877 365.654C416.57 365.449 416.57 365.142 416.672 364.733C416.775 364.323 416.979 364.016 417.389 363.812C418.514 363.095 420.662 363.812 420.764 363.812H420.866C420.866 363.812 420.866 363.812 420.866 363.914C420.866 363.914 420.866 363.914 420.866 364.016V364.119C420.764 364.733 419.946 368.11 418.821 368.314C418.923 368.212 418.821 368.212 418.718 368.212ZM420.355 364.528C419.537 365.244 418.411 366.268 418.309 367.086C418.309 367.291 418.309 367.393 418.411 367.495C418.616 367.802 418.821 367.803 418.821 367.7C419.332 367.598 419.946 365.961 420.355 364.528ZM418.718 363.812C418.309 363.812 417.9 363.914 417.593 364.016C417.389 364.119 417.184 364.323 417.082 364.63C417.082 364.733 416.979 365.04 417.082 365.04C417.389 365.244 418.821 364.63 420.048 363.914C419.741 363.914 419.23 363.812 418.718 363.812Z" fill="#FF4647"/>
<path d="M408.017 370.015C408.017 369.289 398.484 369.807 398.484 369.807C398.484 369.807 392.658 375.614 386.938 376.962C381.325 378.31 384.396 381.628 390.752 381.628C397.107 381.628 401.873 381.628 406.428 381.628C410.983 381.628 408.123 377.895 408.017 370.015Z" fill="#263238"/>
<path d="M393.555 372.51C393.248 372.51 392.941 372.408 392.737 372.306C392.532 372.203 392.327 371.896 392.532 371.282C392.634 370.975 392.737 370.771 393.043 370.668C393.555 370.361 394.373 370.361 395.089 370.464C394.373 370.054 393.657 369.543 393.657 369.133C393.657 368.826 393.862 368.519 394.271 368.315C394.68 368.11 395.089 368.11 395.498 368.315C396.726 368.826 397.544 370.975 397.544 371.078V371.18V371.282C397.544 371.282 397.544 371.282 397.544 371.385C397.544 371.385 397.544 371.385 397.442 371.487C396.828 371.589 394.782 372.51 393.555 372.51ZM394.271 370.873C393.862 370.873 393.453 370.975 393.146 371.078C393.043 371.18 392.941 371.282 392.839 371.385C392.737 371.794 392.839 371.794 392.941 371.896C393.35 372.203 395.089 371.794 396.419 371.18C395.907 370.975 394.987 370.873 394.271 370.873ZM394.885 368.622C394.782 368.622 394.578 368.622 394.475 368.724C394.373 368.826 394.169 368.929 394.169 369.031C394.169 369.44 395.498 370.157 396.828 370.668C396.521 370.054 396.01 369.031 395.294 368.724C395.089 368.622 394.987 368.622 394.885 368.622Z" fill="#FF4647"/>
<path d="M395.102 287.093L373 275.457C379.958 254.141 386.2 242.093 386.2 242.093C407.995 245.8 405.949 263.1 405.949 263.1C405.949 263.1 400.423 274.633 395.102 287.093Z" fill="#263238"/>
<path opacity="0.1" d="M396.482 283.798C395.972 284.93 395.563 285.96 395.053 287.093L373 275.457C379.943 254.141 386.17 242.093 386.17 242.093C399.545 244.461 403.935 251.875 405.365 257.23C406.182 260.525 405.977 263.1 405.977 263.1C405.977 263.1 401.383 272.676 396.482 283.798Z" fill="white"/>
<path opacity="0.2" d="M397 284.093C401.574 272.767 405.953 263.014 405.953 263.014C405.953 263.014 406.245 260.392 405.369 257.037C404.104 256.198 403.228 256.093 403.228 256.093C403.228 256.093 397.681 265.531 397 284.093Z" fill="black"/>
<path d="M402.267 291.863L402.983 256.456L385.492 251.34C385.492 251.34 386.822 235.069 388.868 227.087C388.868 227.087 417.303 220.026 421.702 229.645C421.702 229.645 421.702 229.85 421.804 229.85L421.906 229.952C421.906 229.952 430.089 244.381 427.634 291.863H402.267Z" fill="#263238"/>
<path opacity="0.1" d="M402.267 291.863L402.983 256.456L385.492 251.34C385.492 251.34 386.822 235.069 388.868 227.087C388.868 227.087 417.303 220.026 421.702 229.645C421.702 229.645 421.702 229.85 421.804 229.85L421.906 229.952C421.906 229.952 430.089 244.381 427.634 291.863H402.267Z" fill="white"/>
<path d="M422 224.393V229.093L389 226.593V221.093L422 224.393Z" fill="#263238"/>
<path d="M410.588 231.08L412.223 231.163L412.651 222.783L411.016 222.699L410.588 231.08Z" fill="#263238"/>
<path d="M396.216 227.984L403.449 228.632L403.942 223.128L396.709 222.48L396.216 227.984Z" fill="white"/>
<path d="M390.451 228.806L392.086 228.89L392.513 220.509L390.879 220.426L390.451 228.806Z" fill="#263238"/>
<path opacity="0.1" d="M410.969 222.695L410.541 231.075L412.175 231.159L412.604 222.778L410.969 222.695Z" fill="white"/>
<path opacity="0.1" d="M390.885 220.492L390.457 228.872L392.091 228.956L392.519 220.575L390.885 220.492Z" fill="white"/>
<path d="M388.818 222.222L422.058 225.093C422.884 212.791 423.606 204.897 430.935 182.959C431.555 181.012 432.277 178.961 433 176.911C428.458 175.476 423.916 174.348 419.167 173.63C414.212 172.81 409.257 172.195 404.199 172.093C397.696 172.093 390.263 172.81 390.263 172.81C390.263 172.81 389.231 173.015 388.508 179.884C388.095 186.137 387.476 198.952 388.818 222.222Z" fill="#FF4647"/>
<path opacity="0.6" d="M433 177.004C432.277 179.153 431.554 181.199 430.935 183.041C430.212 185.087 429.592 187.031 429.076 188.873C427.733 193.17 426.597 196.853 425.771 200.128C423.189 210.257 422.57 216.703 422.053 225.093L388.8 222.228C387.457 199.002 388.077 186.212 388.696 179.869C389.316 173.116 390.452 172.809 390.452 172.809C390.452 172.809 392.414 172.604 395.203 172.4C397.784 172.195 401.192 172.093 404.394 172.093C409.454 172.297 414.411 172.809 419.368 173.628C422.26 174.139 425.048 174.651 427.836 175.367C429.385 175.878 431.244 176.39 433 177.004Z" fill="white"/>
<path d="M430 290.283L401 290.093L401.512 294.093L428.668 293.902L430 290.283Z" fill="#FF4647"/>
<path d="M397 286.793L373.215 274.093L372 277.793L394.976 289.093L397 286.793Z" fill="#FF4647"/>
<path d="M406.925 179.093C415.527 178.058 418 174.541 418 174.541C414.559 171.334 415.097 166.679 416.065 163.782C416.495 162.127 417.14 161.093 417.14 161.093L406.818 162.955C407.033 164.61 407.248 165.955 407.248 167.093C407.248 168.334 407.14 169.369 406.925 170.196C406.173 173.196 404.452 173.196 404.452 173.196C402.625 176.403 406.925 179.093 406.925 179.093Z" fill="#B97964"/>
<path opacity="0.2" d="M407.417 167.025C407.417 168.252 407.313 169.275 407.104 170.093C411.063 169.581 414.083 166.513 415.958 163.752C416.375 162.115 417 161.093 417 161.093L407 162.934C407.208 164.468 407.313 165.797 407.417 167.025Z" fill="black"/>
<path d="M421.598 137.649C421.598 137.649 427.223 132.635 432.849 135.193C438.475 137.751 438.986 141.844 436.838 146.245C434.69 150.645 432.951 154.636 435.304 156.273C437.657 157.911 436.941 161.492 434.69 162.618C432.44 163.743 430.906 165.074 433.463 166.199C433.463 166.199 433.054 166.404 430.906 165.074C428.758 163.743 430.497 162.208 431.213 161.185C431.929 160.162 430.701 161.39 428.655 158.525C426.61 155.659 427.939 152.385 429.065 149.008C430.19 145.631 422.621 146.142 422.621 146.142L421.598 137.649Z" fill="#263238"/>
<path d="M417.507 133.454C417.507 133.454 411.472 129.463 405.232 130.282C398.993 131.1 393.162 138.366 394.901 143.482C396.64 148.599 398.584 151.055 396.845 152.897C395.106 154.739 394.39 158.218 396.742 159.753C396.742 159.753 395.208 158.218 396.742 156.376C398.277 154.534 403.8 155.455 405.232 151.362C406.664 147.269 413.824 146.143 413.824 146.143L418.12 159.753C418.12 159.753 424.769 157.911 425.485 148.292C426.099 138.57 423.03 132.533 417.507 133.454Z" fill="#263238"/>
<path d="M408.915 135.91C400.425 136.217 397.868 140.924 397.561 149.724C397.152 160.674 399.914 168.451 410.449 165.688C424.769 162.004 423.133 135.398 408.915 135.91Z" fill="#B97964"/>
<path d="M403.084 149.009C403.084 149.009 401.959 151.26 400.731 152.59C400.731 152.59 401.55 153.716 402.982 153.511L403.084 149.009Z" fill="#A24E3F"/>
<path d="M408.199 148.19C408.199 148.906 408.608 149.418 409.017 149.418C409.529 149.418 409.836 148.804 409.836 148.087C409.836 147.371 409.427 146.859 409.017 146.859C408.608 146.859 408.199 147.473 408.199 148.19Z" fill="#263238"/>
<path d="M409.222 146.859L407.688 146.245C407.688 146.347 408.506 147.575 409.222 146.859Z" fill="#263238"/>
<path d="M399.505 148.087C399.505 148.804 399.914 149.315 400.323 149.315C400.835 149.315 401.141 148.701 401.141 148.087C401.141 147.371 400.732 146.859 400.323 146.859C399.914 146.859 399.505 147.371 399.505 148.087Z" fill="#263238"/>
<path d="M400.527 146.859L398.993 146.245C398.993 146.347 399.811 147.575 400.527 146.859Z" fill="#263238"/>
<path d="M408.097 142.254C408.097 142.254 410.449 141.844 411.881 143.379" stroke="#263238" stroke-width="0.708" stroke-miterlimit="10" stroke-linecap="round" stroke-linejoin="round"/>
<path d="M401.857 142.152C401.857 142.152 400.323 141.641 398.481 142.971" stroke="#263238" stroke-width="0.708" stroke-miterlimit="10" stroke-linecap="round" stroke-linejoin="round"/>
<path d="M404.312 156.887C404.823 157.91 405.437 159.855 405.437 159.855C405.641 159.855 405.846 159.855 405.948 159.752C408.403 159.445 409.426 158.422 409.835 157.501C410.04 156.989 410.04 156.375 410.04 155.966C410.04 155.454 409.835 155.147 409.835 155.147C408.608 156.068 406.357 156.58 405.13 156.785C404.721 156.785 404.312 156.887 404.312 156.887Z" fill="#263238"/>
<path d="M405.232 156.683L405.539 157.502C407.892 157.195 409.426 156.581 410.04 155.865C410.04 155.353 409.835 155.046 409.835 155.046C408.71 155.967 406.46 156.479 405.232 156.683Z" fill="white"/>
<path d="M405.948 159.651C408.403 159.344 409.426 158.32 409.835 157.399C409.017 157.502 407.994 157.809 407.176 158.32C406.562 158.73 406.255 159.241 405.948 159.651Z" fill="#DE5753"/>
<path d="M418.734 149.93C418.734 149.93 414.541 143.074 414.848 137.65C414.848 137.65 397.766 131.408 397.561 148.497C397.561 148.497 395.311 133.352 409.938 132.431C424.565 131.51 425.281 153 418.019 159.651C418.019 159.754 421.394 154.228 418.734 149.93Z" fill="#263238"/>
<path d="M417.507 151.771C417.507 150.441 418.837 147.985 421.394 148.19C424.054 148.394 425.486 153.716 418.939 155.251C418.019 155.558 417.405 154.637 417.507 151.771Z" fill="#B97964"/>
<path d="M414.949 137.65C414.949 137.65 413.722 139.799 413.722 142.459C413.722 145.12 417.404 150.237 417.506 151.772C417.609 153.307 416.483 155.865 417.609 157.4C417.609 157.4 416.893 154.944 418.938 153.614C420.984 152.181 422.825 147.985 420.575 145.018C418.325 142.05 420.473 138.161 420.473 138.161C420.473 138.161 417.302 134.478 414.949 137.65Z" fill="#263238"/>
<path d="M432.589 176.177C442.63 184.932 418.795 209.551 407.233 215.32C395.671 221.088 355.811 228.093 355.811 228.093L355 221.191C355 221.191 396.584 211.405 401.959 206.049C407.233 200.59 430.56 174.426 432.589 176.177Z" fill="#B97964"/>
<path d="M354.272 221.651C354.272 221.651 351.372 219.822 349.922 220.127C348.472 220.33 337.597 226.424 338.012 227.237C338.426 228.05 342.361 232.417 343.708 233.027C345.158 233.636 355.204 229.878 354.997 228.456C354.893 226.932 354.272 221.651 354.272 221.651Z" fill="#B97964"/>
<path d="M428 175.457C424.544 178.924 416.898 183.818 405.691 183.003C395.637 182.289 394.904 175.152 395.008 172.399C397.627 172.195 401.083 172.093 404.33 172.093C409.462 172.297 414.489 172.806 419.516 173.622C422.24 174.132 425.172 174.744 428 175.457Z" fill="#B97964"/>
<path d="M314.999 61.6049C287.729 31.4906 244.731 18.1678 203.735 31.0153C166.522 42.6772 140.261 72.9872 131.838 108.617" stroke="url(#paint0_linear)" stroke-linecap="round" stroke-linejoin="round" stroke-dasharray="4 8"/>
<path d="M321.5 55.0928C312.942 55.0928 306 62.0191 306 70.5584C306 79.0976 321.5 98.0928 321.5 98.0928C321.5 98.0928 337 79.0976 337 70.5584C337 62.0191 330.058 55.0928 321.5 55.0928ZM321.5 77.6365C317.506 77.6365 314.254 74.3915 314.254 70.4065C314.254 66.4215 317.506 63.1766 321.5 63.1766C325.494 63.1766 328.746 66.4215 328.746 70.4065C328.746 74.4105 325.494 77.6365 321.5 77.6365Z" fill="#FF4647"/>
<path d="M441.5 19.6162C436.812 19.6162 433 23.4809 433 28.2539C433 33.0075 441.5 43.6162 441.5 43.6162C441.5 43.6162 450 33.0268 450 28.2539C450.019 23.4809 446.207 19.6162 441.5 19.6162ZM441.5 32.1959C439.308 32.1959 437.517 30.3988 437.517 28.1573C437.517 25.9351 439.289 24.1186 441.5 24.1186C443.692 24.1186 445.483 25.9157 445.483 28.1573C445.483 30.3795 443.711 32.1959 441.5 32.1959Z" fill="#2467FD"/>
<path d="M134.951 97.5967C126.741 97.5967 119.167 100.488 113.244 105.313C105.464 111.659 100.516 121.309 100.516 132.085C100.516 151.122 134.951 193.458 134.951 193.458C134.951 193.458 150.585 174.233 160.764 155.872C165.713 146.992 169.387 138.299 169.387 132.085C169.387 113.048 153.978 97.5967 134.951 97.5967ZM134.951 147.837C126.047 147.837 118.849 140.646 118.849 131.728C118.849 129.55 119.28 127.485 120.067 125.57C122.485 119.713 128.222 115.601 134.951 115.601C143.855 115.601 151.054 122.829 151.054 131.728C151.054 139.445 145.674 145.847 138.457 147.424C137.351 147.705 136.151 147.837 134.951 147.837Z" fill="#FF9A01"/>
<defs>
<linearGradient id="paint0_linear" x1="133.957" y1="166.075" x2="338.115" y2="102.095" gradientUnits="userSpaceOnUse">
<stop stop-color="#FF9A01"/>
<stop offset="1" stop-color="#FF4647"/>
</linearGradient>
</defs>
</svg>
