<?xml version="1.0" encoding="utf-8"?>
<!-- Generator: Adobe Illustrator 23.0.2, SVG Export Plug-In . SVG Version: 6.00 Build 0)  -->
<svg version="1.1" id="Layer_1" xmlns="http://www.w3.org/2000/svg" xmlns:xlink="http://www.w3.org/1999/xlink" x="0px" y="0px"
	 viewBox="0 0 133 28" style="enable-background:new 0 0 133 28;" xml:space="preserve">
<style type="text/css">
	.st0{fill:url(#SVGID_1_);}
	.st1{fill:url(#SVGID_2_);}
	.st2{fill:#FFFFFF;}
</style>
<g>
	
		<linearGradient id="SVGID_1_" gradientUnits="userSpaceOnUse" x1="0" y1="36" x2="133" y2="36" gradientTransform="matrix(1 0 0 -1 0 50)">
		<stop  offset="0" style="stop-color:#16E42B"/>
		<stop  offset="1" style="stop-color:#01B3FF"/>
	</linearGradient>
	<path class="st0" d="M6,0h121c3.3,0,6,2.7,6,6v16c0,3.3-2.7,6-6,6H6c-3.3,0-6-2.7-6-6V6C0,2.7,2.7,0,6,0z"/>
</g>
<g>
	
		<linearGradient id="SVGID_2_" gradientUnits="userSpaceOnUse" x1="0" y1="36" x2="28" y2="36" gradientTransform="matrix(1 0 0 -1 0 50)">
		<stop  offset="0" style="stop-color:#24DD36"/>
		<stop  offset="1" style="stop-color:#00C767"/>
	</linearGradient>
	<path class="st1" d="M0,6c0-3.3,2.7-6,6-6h22v28H6c-3.3,0-6-2.7-6-6V6z"/>
</g>
<path class="st2" d="M23.1,16.8h-0.4v-3.2c0-0.5-0.2-1-0.6-1.4L19.8,10c-0.4-0.4-0.9-0.6-1.4-0.6h-1V8.3c0-0.8-0.7-1.5-1.5-1.5H7.5
	C6.7,6.8,6,7.5,6,8.3v8.3c0,0.8,0.7,1.5,1.5,1.5h0.2c0,1.4,1.2,2.6,2.6,2.6s2.6-1.2,2.6-2.6h3.5c0,1.4,1.2,2.6,2.6,2.6
	s2.6-1.2,2.6-2.6h1.3c0.2,0,0.4-0.2,0.4-0.4v-0.4C23.5,17,23.3,16.8,23.1,16.8z M10.4,19.4c-0.7,0-1.3-0.6-1.3-1.3
	c0-0.7,0.6-1.3,1.3-1.3c0.7,0,1.3,0.6,1.3,1.3C11.7,18.9,11.1,19.4,10.4,19.4z M16.1,16.8h-3.4c-0.4-0.8-1.3-1.3-2.2-1.3
	c-1,0-1.8,0.5-2.3,1.3H7.5c-0.1,0-0.2-0.1-0.2-0.2V8.3c0-0.1,0.1-0.2,0.2-0.2h8.3c0.1,0,0.2,0.1,0.2,0.2V16.8z M17.4,10.7h1
	c0.2,0,0.3,0.1,0.5,0.2l2,2h-3.4V10.7z M19.1,19.4c-0.7,0-1.3-0.6-1.3-1.3c0-0.7,0.6-1.3,1.3-1.3c0.7,0,1.3,0.6,1.3,1.3
	C20.4,18.9,19.8,19.4,19.1,19.4z M21.3,16.7c-0.5-0.7-1.3-1.2-2.2-1.2c-0.7,0-1.3,0.3-1.8,0.7v-2h3.9V16.7z"/>
<path class="st2" d="M43.9,14.9h-3.9V19h-2.1V9h6.5v1.7h-4.4v2.6h3.9V14.9z"/>
<path class="st2" d="M49.6,13.5c-0.3,0-0.5-0.1-0.7-0.1c-0.7,0-1.2,0.3-1.5,0.8V19h-2v-7.4h1.9l0.1,0.9c0.4-0.7,0.9-1,1.6-1
	c0.2,0,0.4,0,0.6,0.1L49.6,13.5z"/>
<path class="st2" d="M53.8,19.1c-1.1,0-2-0.3-2.7-1c-0.7-0.7-1-1.6-1-2.7v-0.2c0-0.7,0.1-1.4,0.4-2c0.3-0.6,0.7-1,1.2-1.4
	c0.5-0.3,1.1-0.5,1.8-0.5c1,0,1.8,0.3,2.4,1c0.6,0.6,0.9,1.5,0.9,2.7v0.8h-4.7c0.1,0.5,0.3,0.9,0.6,1.2c0.3,0.3,0.7,0.4,1.2,0.4
	c0.8,0,1.4-0.3,1.8-0.8l1,1.1c-0.3,0.4-0.7,0.7-1.2,1C55,19,54.4,19.1,53.8,19.1z M53.6,13.1c-0.4,0-0.7,0.1-1,0.4
	c-0.2,0.3-0.4,0.6-0.5,1.1h2.7v-0.2c0-0.4-0.1-0.8-0.4-1C54.3,13.2,54,13.1,53.6,13.1z"/>
<path class="st2" d="M61.4,19.1c-1.1,0-2-0.3-2.7-1c-0.7-0.7-1-1.6-1-2.7v-0.2c0-0.7,0.1-1.4,0.4-2c0.3-0.6,0.7-1,1.2-1.4
	c0.5-0.3,1.1-0.5,1.8-0.5c1,0,1.8,0.3,2.4,1c0.6,0.6,0.9,1.5,0.9,2.7v0.8h-4.7c0.1,0.5,0.3,0.9,0.6,1.2c0.3,0.3,0.7,0.4,1.2,0.4
	c0.8,0,1.4-0.3,1.8-0.8l1,1.1c-0.3,0.4-0.7,0.7-1.2,1C62.6,19,62,19.1,61.4,19.1z M61.2,13.1c-0.4,0-0.7,0.1-1,0.4
	c-0.2,0.3-0.4,0.6-0.5,1.1h2.7v-0.2c0-0.4-0.1-0.8-0.4-1C61.9,13.2,61.6,13.1,61.2,13.1z"/>
<path class="st2" d="M74.3,16.4c0-0.4-0.1-0.7-0.4-0.9c-0.3-0.2-0.8-0.4-1.5-0.7c-0.7-0.2-1.3-0.5-1.7-0.7c-1.1-0.6-1.7-1.4-1.7-2.5
	c0-0.5,0.2-1,0.5-1.4c0.3-0.4,0.7-0.8,1.3-1C71.4,9,72,8.9,72.7,8.9c0.7,0,1.3,0.1,1.9,0.4c0.6,0.3,1,0.6,1.3,1.1
	c0.3,0.5,0.5,1,0.5,1.6h-2.1c0-0.5-0.1-0.8-0.4-1.1c-0.3-0.3-0.7-0.4-1.2-0.4c-0.5,0-0.9,0.1-1.2,0.3c-0.3,0.2-0.4,0.5-0.4,0.8
	c0,0.3,0.2,0.6,0.5,0.8c0.3,0.2,0.8,0.4,1.4,0.6c1.2,0.4,2,0.8,2.5,1.3c0.5,0.5,0.8,1.2,0.8,1.9c0,0.9-0.3,1.5-1,2
	c-0.7,0.5-1.5,0.7-2.6,0.7c-0.8,0-1.5-0.1-2.1-0.4c-0.6-0.3-1.1-0.7-1.4-1.2c-0.3-0.5-0.5-1.1-0.5-1.7h2.1c0,1.1,0.7,1.6,2,1.6
	c0.5,0,0.9-0.1,1.1-0.3C74.2,17,74.3,16.7,74.3,16.4z"/>
<path class="st2" d="M79.6,12.4c0.5-0.6,1.2-0.9,2-0.9c1.6,0,2.4,0.9,2.4,2.8V19h-2v-4.7c0-0.4-0.1-0.7-0.3-0.9
	c-0.2-0.2-0.5-0.3-0.9-0.3c-0.6,0-1,0.2-1.3,0.7V19h-2V8.5h2V12.4z"/>
<path class="st2" d="M87.6,19h-2v-7.4h2V19z M85.5,9.7c0-0.3,0.1-0.5,0.3-0.7c0.2-0.2,0.5-0.3,0.8-0.3c0.3,0,0.6,0.1,0.8,0.3
	c0.2,0.2,0.3,0.4,0.3,0.7c0,0.3-0.1,0.5-0.3,0.7c-0.2,0.2-0.5,0.3-0.8,0.3s-0.6-0.1-0.8-0.3C85.6,10.2,85.5,10,85.5,9.7z"/>
<path class="st2" d="M95.9,15.4c0,1.1-0.3,2.1-0.8,2.7c-0.5,0.7-1.2,1-2.1,1c-0.7,0-1.4-0.3-1.8-0.8v3.5h-2V11.6H91l0.1,0.7
	c0.5-0.6,1.1-0.9,1.9-0.9c0.9,0,1.6,0.3,2.1,1c0.5,0.7,0.8,1.6,0.8,2.8V15.4z M93.9,15.2c0-0.7-0.1-1.2-0.4-1.6
	c-0.2-0.4-0.6-0.6-1.1-0.6c-0.6,0-1,0.2-1.3,0.7v3c0.2,0.5,0.7,0.7,1.3,0.7C93.4,17.5,93.9,16.8,93.9,15.2z"/>
<path class="st2" d="M103.8,15.4c0,1.1-0.3,2.1-0.8,2.7c-0.5,0.7-1.2,1-2.1,1c-0.7,0-1.4-0.3-1.8-0.8v3.5h-2V11.6h1.8l0.1,0.7
	c0.5-0.6,1.1-0.9,1.9-0.9c0.9,0,1.6,0.3,2.1,1c0.5,0.7,0.8,1.6,0.8,2.8V15.4z M101.8,15.2c0-0.7-0.1-1.2-0.4-1.6
	c-0.2-0.4-0.6-0.6-1.1-0.6c-0.6,0-1,0.2-1.3,0.7v3c0.2,0.5,0.7,0.7,1.3,0.7C101.3,17.5,101.8,16.8,101.8,15.2z"/>
<path class="st2" d="M107.1,19h-2v-7.4h2V19z M105,9.7c0-0.3,0.1-0.5,0.3-0.7c0.2-0.2,0.5-0.3,0.8-0.3c0.3,0,0.6,0.1,0.8,0.3
	c0.2,0.2,0.3,0.4,0.3,0.7c0,0.3-0.1,0.5-0.3,0.7c-0.2,0.2-0.5,0.3-0.8,0.3s-0.6-0.1-0.8-0.3C105.1,10.2,105,10,105,9.7z"/>
<path class="st2" d="M110.5,11.6l0.1,0.9c0.5-0.7,1.2-1,2.1-1c0.8,0,1.4,0.2,1.8,0.7c0.4,0.5,0.6,1.1,0.6,2.1V19h-2v-4.7
	c0-0.4-0.1-0.7-0.3-0.9c-0.2-0.2-0.5-0.3-0.9-0.3c-0.6,0-1,0.2-1.3,0.7V19h-2v-7.4H110.5z"/>
<path class="st2" d="M116.3,15.2c0-1.1,0.3-2,0.8-2.7c0.5-0.7,1.3-1,2.2-1c0.8,0,1.4,0.3,1.9,0.8l0.1-0.7h1.8v7.2
	c0,0.6-0.1,1.2-0.4,1.7c-0.3,0.5-0.7,0.8-1.2,1.1c-0.5,0.3-1.2,0.4-1.9,0.4c-0.5,0-1.1-0.1-1.6-0.3c-0.5-0.2-0.9-0.5-1.2-0.8
	l0.9-1.2c0.5,0.6,1.1,0.8,1.8,0.8c0.5,0,0.9-0.1,1.2-0.4c0.3-0.3,0.4-0.7,0.4-1.2v-0.4c-0.5,0.5-1.1,0.8-1.8,0.8
	c-0.9,0-1.6-0.3-2.2-1C116.5,17.4,116.3,16.5,116.3,15.2L116.3,15.2z M118.2,15.4c0,0.7,0.1,1.2,0.4,1.6c0.3,0.4,0.6,0.6,1.1,0.6
	c0.6,0,1-0.2,1.3-0.7v-3.1c-0.3-0.5-0.7-0.7-1.3-0.7c-0.5,0-0.8,0.2-1.1,0.6C118.4,14,118.2,14.6,118.2,15.4z"/>
</svg>
