<?xml version="1.0" encoding="utf-8"?>
<!-- Generator: Adobe Illustrator 23.0.2, SVG Export Plug-In . SVG Version: 6.00 Build 0)  -->
<svg version="1.1" id="Layer_1" xmlns="http://www.w3.org/2000/svg" xmlns:xlink="http://www.w3.org/1999/xlink" x="0px" y="0px"
	 viewBox="0 0 18 18" style="enable-background:new 0 0 18 18;" xml:space="preserve">
<style type="text/css">
	.st0{fill:#FFFFFF;}
</style>
<path class="st0" d="M11,6.9C10.7,6.5,10.2,6.3,9.8,6C9.6,6,9.4,6,9.3,6.1L9.1,6.3C8.8,6.5,8.7,6.9,8.6,7.3c0,0.2,0.1,0.4,0.2,0.5
	c0.3,0.1,0.6,0.3,0.8,0.6c1.2,1.2,1.2,3,0,4.2L7,15.2c-1.2,1.2-3,1.2-4.2,0s-1.2-3,0-4.2l1.6-1.6C4.5,9.3,4.6,9.1,4.5,9
	C4.4,8.6,4.4,8.1,4.4,7.6c0-0.4-0.5-0.5-0.7-0.3C3.2,7.8,2.6,8.4,1.5,9.6c-1.9,1.9-1.9,5.1,0,7c1.9,1.9,5,1.9,7,0
	c2.9-2.9,2.7-2.7,3-3C12.9,11.6,12.8,8.7,11,6.9z M16.5,1.5c-1.9-1.9-5-1.9-7,0c-2.9,2.9-2.7,2.7-3,3C5,6.4,5.1,9.3,6.9,11
	c0.4,0.4,0.8,0.7,1.3,0.9c0.2,0.1,0.4,0,0.5-0.1l0.1-0.1c0.3-0.3,0.5-0.7,0.5-1.1c0-0.2-0.1-0.4-0.2-0.5c-0.3-0.1-0.6-0.3-0.8-0.6
	c-1.2-1.2-1.2-3,0-4.2L11,2.8c1.2-1.2,3-1.2,4.2,0c1.2,1.2,1.2,3,0,4.2l-1.6,1.6c-0.1,0.1-0.1,0.2-0.1,0.4c0.1,0.4,0.1,0.9,0.2,1.3
	c0,0.4,0.5,0.5,0.7,0.3c0.4-0.4,1.1-1.1,2.2-2.2C18.5,6.5,18.5,3.3,16.5,1.5z"/>
</svg>
