<?xml version="1.0" encoding="utf-8"?>
<!-- Generator: Adobe Illustrator 23.0.2, SVG Export Plug-In . SVG Version: 6.00 Build 0)  -->
<svg version="1.1" id="Layer_1" xmlns="http://www.w3.org/2000/svg" xmlns:xlink="http://www.w3.org/1999/xlink" x="0px" y="0px"
	 viewBox="0 0 64 64" style="enable-background:new 0 0 64 64;" xml:space="preserve">
<style type="text/css">
	.st0{fill:url(#SVGID_1_);}
	.st1{fill-rule:evenodd;clip-rule:evenodd;fill:#FFFFFF;}
	.st2{fill:#FFFFFF;}
</style>
<g>
	
		<linearGradient id="SVGID_1_" gradientUnits="userSpaceOnUse" x1="15.0066" y1="897.5139" x2="47.7447" y2="836.8017" gradientTransform="matrix(1 0 0 1 0 -834)">
		<stop  offset="0" style="stop-color:#2759D9"/>
		<stop  offset="1" style="stop-color:#984CD4"/>
	</linearGradient>
	<path class="st0" d="M0.9,32C0.9,14.8,14.8,0.9,32,0.9l0,0c17.2,0,31.1,13.9,31.1,31.1l0,0c0,17.2-13.9,31.1-31.1,31.1l0,0
		C14.8,63.1,0.9,49.2,0.9,32L0.9,32z"/>
</g>
<g>
	<path class="st1" d="M2,32c0,16.6,13.4,30,30,30s30-13.4,30-30S48.6,2,32,2S2,15.4,2,32z M32,0C14.3,0,0,14.3,0,32s14.3,32,32,32
		s32-14.3,32-32S49.7,0,32,0z"/>
</g>
<path class="st2" d="M45.1,32.1c0.5-0.7,0.9-1.6,0.9-2.7c-0.1-2.1-1.8-4-4-4h-3.8c0.4-0.9,1.1-2.1,1.1-3.8c0-3.2-1.3-5.1-4.5-5.1
	c-1.6,0-2.2,2.1-2.5,3.7c-0.2,0.9-0.4,1.9-0.9,2.4c-1.3,1.3-3.2,4.4-4.4,5c-0.1,0.1-0.3,0.1-0.4,0.1C26.1,27.3,25.5,27,25,27h-5.2
	c-1,0-1.8,0.8-1.8,1.8v14c0,1,0.8,1.8,1.8,1.8H25c0.9,0,1.8-0.8,1.8-1.8v-0.4c1.8,0,5.5,2.2,9.7,2.2c0.3,0,2.1,0.1,2.2,0
	c3.2,0,5-1.9,4.9-4.9c0.8-1,1.3-2.4,1-3.7C45.3,34.9,45.5,33.4,45.1,32.1z M19.8,42.8v-14H25v14H19.8z M42.9,31.6
	c0.9,0.6,0.9,3.2-0.3,3.9c0.7,1.2,0.1,2.9-0.8,3.4c0.4,2.8-1,3.8-3.1,3.8c-0.2,0.1-2.1,0-2.2,0c-4,0-7.4-2.2-9.7-2.2V29.4
	c2,0,3.9-3.7,5.8-5.6c1.6-1.6,1.1-4.4,2.2-5.6c2.8,0,2.8,2,2.8,3.4c0,2.3-1.6,3.3-1.6,5.5h6c1.3,0,2.2,1.1,2.2,2.2
	C44.2,30.5,43.8,31.4,42.9,31.6z M23.7,40.1c0-0.7-0.6-1.3-1.3-1.3c-0.8,0-1.3,0.6-1.3,1.3c0,0.8,0.5,1.3,1.3,1.3
	C23.1,41.4,23.7,40.9,23.7,40.1z"/>
</svg>
