<?xml version="1.0" encoding="utf-8"?>
<!-- Generator: Adobe Illustrator 23.0.2, SVG Export Plug-In . SVG Version: 6.00 Build 0)  -->
<svg version="1.1" id="Layer_1" xmlns="http://www.w3.org/2000/svg" xmlns:xlink="http://www.w3.org/1999/xlink" x="0px" y="0px"
	 viewBox="0 0 133 42" style="enable-background:new 0 0 133 42;" xml:space="preserve">
<style type="text/css">
	.st0{fill:#FFFFFF;}
	.st1{fill:url(#SVGID_1_);}
	.st2{fill:url(#SVGID_2_);}
	.st3{fill:url(#SVGID_3_);}
	.st4{fill-rule:evenodd;clip-rule:evenodd;fill:url(#SVGID_4_);}
</style>
<g>
	<path class="st0" d="M6,0h111c3.3,0,6,2.7,6,6v30c0,3.3-2.7,6-6,6H6c-3.3,0-6-2.7-6-6V6C0,2.7,2.7,0,6,0z"/>
</g>
<linearGradient id="SVGID_1_" gradientUnits="userSpaceOnUse" x1="47" y1="43" x2="133" y2="43" gradientTransform="matrix(1 0 0 -1 0 64)">
	<stop  offset="0" style="stop-color:#2658D9"/>
	<stop  offset="1" style="stop-color:#984CD3"/>
</linearGradient>
<path class="st1" d="M47,0h80c3.3,0,6,2.7,6,6v30c0,3.3-2.7,6-6,6H47V0z"/>
<path class="st0" d="M70.1,13.2c0,1-0.2,1.8-0.5,2.6c-0.3,0.7-0.8,1.3-1.5,1.7c-0.6,0.4-1.4,0.6-2.2,0.6c-0.8,0-1.6-0.2-2.2-0.6
	c-0.6-0.4-1.1-1-1.5-1.7c-0.4-0.7-0.5-1.6-0.5-2.5v-0.5c0-1,0.2-1.8,0.5-2.6c0.4-0.7,0.9-1.3,1.5-1.7c0.6-0.4,1.4-0.6,2.2-0.6
	c0.8,0,1.6,0.2,2.2,0.6c0.6,0.4,1.1,1,1.5,1.7c0.4,0.7,0.5,1.6,0.5,2.6V13.2z M68,12.8c0-1-0.2-1.8-0.6-2.4
	c-0.4-0.5-0.9-0.8-1.6-0.8c-0.7,0-1.2,0.3-1.6,0.8c-0.4,0.5-0.6,1.3-0.6,2.4v0.5c0,1,0.2,1.8,0.6,2.4c0.4,0.6,0.9,0.8,1.6,0.8
	c0.7,0,1.2-0.3,1.6-0.8c0.4-0.5,0.6-1.3,0.6-2.4V12.8z"/>
<path class="st0" d="M77.5,13.9h-3.9V18h-2.1V8H78v1.7h-4.4v2.6h3.9V13.9z"/>
<path class="st0" d="M85.2,13.9h-3.9V18h-2.1V8h6.5v1.7h-4.4v2.6h3.9V13.9z"/>
<path class="st0" d="M89.1,18H87V8h2.1V18z"/>
<path class="st0" d="M98.8,14.7c-0.1,1.1-0.5,1.9-1.2,2.5c-0.7,0.6-1.6,0.9-2.8,0.9c-1.3,0-2.3-0.4-3-1.3c-0.7-0.9-1.1-2-1.1-3.5
	v-0.6c0-1,0.2-1.8,0.5-2.5c0.3-0.7,0.8-1.3,1.4-1.7c0.6-0.4,1.4-0.6,2.2-0.6c1.1,0,2.1,0.3,2.8,0.9c0.7,0.6,1.1,1.5,1.2,2.6h-2.1
	c-0.1-0.6-0.2-1.1-0.5-1.4c-0.3-0.3-0.8-0.4-1.4-0.4c-0.7,0-1.2,0.2-1.5,0.7c-0.3,0.5-0.5,1.2-0.5,2.3v0.8c0,1.1,0.2,1.9,0.5,2.4
	c0.3,0.5,0.8,0.7,1.5,0.7c0.6,0,1.1-0.1,1.4-0.4c0.3-0.3,0.5-0.7,0.5-1.3H98.8z"/>
<path class="st0" d="M102.3,18h-2.1V8h2.1V18z"/>
<path class="st0" d="M110,15.9h-3.6l-0.7,2.1h-2.2l3.7-10h1.9l3.7,10h-2.2L110,15.9z M106.9,14.3h2.5l-1.3-3.7L106.9,14.3z"/>
<path class="st0" d="M115.8,16.4h4.4V18h-6.4V8h2.1V16.4z"/>
<path class="st0" d="M67,31.4c0-0.4-0.1-0.7-0.4-0.9c-0.3-0.2-0.8-0.4-1.5-0.7c-0.7-0.2-1.3-0.5-1.7-0.7c-1.1-0.6-1.7-1.4-1.7-2.5
	c0-0.5,0.2-1,0.5-1.4c0.3-0.4,0.7-0.8,1.3-1c0.6-0.2,1.2-0.4,1.9-0.4c0.7,0,1.3,0.1,1.9,0.4c0.6,0.3,1,0.6,1.3,1.1
	c0.3,0.5,0.5,1,0.5,1.6h-2.1c0-0.5-0.1-0.8-0.4-1.1c-0.3-0.3-0.7-0.4-1.2-0.4c-0.5,0-0.9,0.1-1.2,0.3c-0.3,0.2-0.4,0.5-0.4,0.8
	c0,0.3,0.2,0.6,0.5,0.8c0.3,0.2,0.8,0.4,1.4,0.6c1.2,0.4,2,0.8,2.5,1.3c0.5,0.5,0.8,1.2,0.8,1.9c0,0.9-0.3,1.5-1,2
	c-0.7,0.5-1.5,0.7-2.6,0.7c-0.8,0-1.5-0.1-2.1-0.4c-0.6-0.3-1.1-0.7-1.4-1.2c-0.3-0.5-0.5-1.1-0.5-1.7h2.1c0,1.1,0.7,1.6,2,1.6
	c0.5,0,0.9-0.1,1.1-0.3C66.9,32,67,31.7,67,31.4z"/>
<path class="st0" d="M78,25.7h-3V34h-2.1v-8.3h-3V24H78V25.7z"/>
<path class="st0" d="M87.2,29.2c0,1-0.2,1.8-0.5,2.6c-0.3,0.7-0.8,1.3-1.5,1.7c-0.6,0.4-1.4,0.6-2.2,0.6c-0.8,0-1.6-0.2-2.2-0.6
	s-1.1-1-1.5-1.7c-0.4-0.7-0.5-1.6-0.5-2.5v-0.5c0-1,0.2-1.8,0.5-2.6c0.4-0.7,0.9-1.3,1.5-1.7c0.6-0.4,1.4-0.6,2.2-0.6
	s1.6,0.2,2.2,0.6c0.6,0.4,1.1,1,1.5,1.7c0.4,0.7,0.5,1.6,0.5,2.6V29.2z M85.1,28.8c0-1-0.2-1.8-0.6-2.4c-0.4-0.5-0.9-0.8-1.6-0.8
	c-0.7,0-1.2,0.3-1.6,0.8c-0.4,0.5-0.6,1.3-0.6,2.4v0.5c0,1,0.2,1.8,0.6,2.4c0.4,0.6,0.9,0.8,1.6,0.8c0.7,0,1.2-0.3,1.6-0.8
	c0.4-0.5,0.6-1.3,0.6-2.4V28.8z"/>
<path class="st0" d="M92.3,30.4h-1.6V34h-2.1V24h3.7c1.2,0,2.1,0.3,2.7,0.8c0.6,0.5,1,1.3,1,2.2c0,0.7-0.1,1.2-0.4,1.7
	c-0.3,0.5-0.7,0.8-1.3,1.1l2.2,4.1V34h-2.2L92.3,30.4z M90.7,28.7h1.7c0.5,0,0.9-0.1,1.2-0.4c0.3-0.3,0.4-0.6,0.4-1.1
	c0-0.5-0.1-0.8-0.4-1.1c-0.3-0.3-0.7-0.4-1.2-0.4h-1.6V28.7z"/>
<path class="st0" d="M103.6,29.7h-3.9v2.7h4.6V34h-6.7V24h6.7v1.7h-4.6v2.4h3.9V29.7z"/>
<linearGradient id="SVGID_2_" gradientUnits="userSpaceOnUse" x1="10" y1="39.2236" x2="38" y2="39.2236" gradientTransform="matrix(1 0 0 -1 0 64)">
	<stop  offset="0" style="stop-color:#2658D9"/>
	<stop  offset="1" style="stop-color:#984CD3"/>
</linearGradient>
<path class="st2" d="M13.2,14.1c0.1-0.6,0.6-1.1,1.3-1.1h13.2v23.6H14.3c-2.6,0-4.6-2.3-4.2-4.8L13.2,14.1z"/>
<linearGradient id="SVGID_3_" gradientUnits="userSpaceOnUse" x1="10" y1="39.2236" x2="38" y2="39.2236" gradientTransform="matrix(1 0 0 -1 0 64)">
	<stop  offset="0" style="stop-color:#2658D9"/>
	<stop  offset="1" style="stop-color:#984CD3"/>
</linearGradient>
<path class="st3" d="M34.8,14.1c-0.1-0.6-0.6-1.1-1.3-1.1h-6.8v23.6h6.9c2.6,0,4.6-2.3,4.2-4.8L34.8,14.1z"/>
<linearGradient id="SVGID_4_" gradientUnits="userSpaceOnUse" x1="10" y1="54" x2="38" y2="54" gradientTransform="matrix(1 0 0 -1 0 64)">
	<stop  offset="0" style="stop-color:#2658D9"/>
	<stop  offset="1" style="stop-color:#984CD3"/>
</linearGradient>
<path class="st4" d="M24,6c-2.2,0-4,1.8-4,4v6h-2v-6c0-3.3,2.7-6,6-6c3.3,0,6,2.7,6,6v6h-2v-6C28,7.8,26.2,6,24,6z"/>
<path class="st0" d="M26.1,22.6c-0.1-0.1-0.3-0.1-0.4,0L23.3,25l-1-1c-0.1-0.1-0.3-0.1-0.4,0l-0.6,0.6c-0.1,0.1-0.1,0.3,0,0.4
	l1.9,1.9c0.1,0.1,0.3,0.1,0.4,0l3.2-3.2c0.1-0.1,0.1-0.3,0-0.4L26.1,22.6z M31,24.8c0-1-0.5-1.9-1.3-2.4c0.2-0.9-0.1-1.9-0.8-2.6
	c-0.7-0.7-1.7-1-2.6-0.8c-0.5-0.8-1.4-1.3-2.4-1.3c-1,0-1.9,0.5-2.4,1.3c-0.9-0.2-1.9,0.1-2.6,0.8c-0.7,0.7-1,1.7-0.8,2.6
	c-0.8,0.5-1.3,1.4-1.3,2.4c0,1,0.5,1.9,1.3,2.4c-0.2,0.9,0.1,1.9,0.8,2.6c0.7,0.7,1.7,1,2.6,0.8c0.5,0.8,1.4,1.3,2.4,1.3
	c1,0,1.9-0.5,2.4-1.3c0.9,0.2,1.9-0.1,2.6-0.8c0.7-0.7,1-1.7,0.8-2.6C30.5,26.6,31,25.8,31,24.8z M28,26.4c0.2,0.5,0.8,1.5,0,2.4
	c-0.8,0.8-1.5,0.4-2.4,0c-0.2,0.6-0.5,1.6-1.7,1.6c-1.3,0-1.5-1.1-1.7-1.6c-0.6,0.3-1.5,0.8-2.4,0c-0.9-0.9-0.2-1.9,0-2.3
	c-0.6-0.2-1.6-0.5-1.6-1.7c0-1.2,1.1-1.5,1.6-1.7c-0.2-0.5-0.8-1.5,0-2.4c0.9-0.9,1.9-0.2,2.3,0c0.2-0.6,0.5-1.7,1.7-1.7
	c1.2,0,1.5,1.2,1.7,1.7c0.5-0.2,1.5-0.8,2.4,0c0.9,0.9,0.2,1.9,0,2.3c0.6,0.2,1.6,0.5,1.6,1.7C29.7,26,28.5,26.3,28,26.4z"/>
</svg>
