<svg width="44" height="44" viewBox="0 0 44 44" fill="none" xmlns="http://www.w3.org/2000/svg">
<circle cx="22" cy="22" r="21" stroke="white" stroke-width="2"/>
<path d="M17.9375 20.8125C20.1113 20.8125 21.875 19.0488 21.875 16.875C21.875 14.7012 20.1113 12.9375 17.9375 12.9375C15.7637 12.9375 14 14.7012 14 16.875C14 19.0488 15.7637 20.8125 17.9375 20.8125ZM17.9375 14.9062C19.0039 14.9062 19.9062 15.8086 19.9062 16.875C19.9062 17.9824 19.0039 18.8438 17.9375 18.8438C16.8301 18.8438 15.9688 17.9824 15.9688 16.875C15.9688 15.8086 16.8301 14.9062 17.9375 14.9062ZM25.8125 23.4375C23.6387 23.4375 21.875 25.2012 21.875 27.375C21.875 29.5488 23.6387 31.3125 25.8125 31.3125C27.9863 31.3125 29.75 29.5488 29.75 27.375C29.75 25.2012 27.9863 23.4375 25.8125 23.4375ZM25.8125 29.3438C24.7051 29.3438 23.8438 28.4824 23.8438 27.375C23.8438 26.3086 24.7051 25.4062 25.8125 25.4062C26.8789 25.4062 27.7812 26.3086 27.7812 27.375C27.7812 28.4824 26.8789 29.3438 25.8125 29.3438ZM29.627 13.7168C29.873 13.3887 29.627 12.9375 29.2578 12.9375H27.7812C27.6582 12.9375 27.4941 13.0195 27.4121 13.1426L14.082 30.5742C13.8359 30.9023 14.082 31.3125 14.4922 31.3125H15.9277C16.0918 31.3125 16.2148 31.2715 16.3379 31.1074L29.627 13.7168Z" fill="white"/>
</svg>
