<?xml version="1.0" encoding="utf-8"?>
<!-- Generator: Adobe Illustrator 23.0.2, SVG Export Plug-In . SVG Version: 6.00 Build 0)  -->
<svg version="1.1" id="Layer_1" xmlns="http://www.w3.org/2000/svg" xmlns:xlink="http://www.w3.org/1999/xlink" x="0px" y="0px"
	 viewBox="0 0 64 64" style="enable-background:new 0 0 64 64;" xml:space="preserve">
<style type="text/css">
	.st0{fill:url(#SVGID_1_);}
	.st1{fill-rule:evenodd;clip-rule:evenodd;fill:#FFFFFF;}
	.st2{fill:#FFFFFF;}
</style>
<g>
	
		<linearGradient id="SVGID_1_" gradientUnits="userSpaceOnUse" x1="15.0825" y1="897.3732" x2="47.6744" y2="836.9321" gradientTransform="matrix(1 0 0 1 0 -834)">
		<stop  offset="0" style="stop-color:#2759D9"/>
		<stop  offset="1" style="stop-color:#984CD4"/>
	</linearGradient>
	<path class="st0" d="M1,32C1,14.9,14.9,1,32,1l0,0c17.1,0,31,13.8,31,31l0,0c0,17.1-13.8,31-31,31l0,0C14.9,63,1,49.1,1,32L1,32z"
		/>
</g>
<g>
	<path class="st1" d="M2,32c0,16.6,13.4,30,30,30s30-13.4,30-30S48.6,2,32,2S2,15.4,2,32z M32,0C14.3,0,0,14.3,0,32s14.3,32,32,32
		s32-14.3,32-32S49.7,0,32,0z"/>
</g>
<path class="st2" d="M24.8,33c1.7-1.1,3.4,0.1,3.9,1.3l1.4,3.7c0.6,1.4,0.7,3,0.3,4.4l-1.7,6.3c-0.1,0.2-0.3,0.4-0.5,0.3l-0.8-0.2
	c-0.3-0.1-0.4-0.3-0.3-0.5l1.7-6.3c0.3-1.1,0.2-2.3-0.2-3.3L27,34.9c-0.2-0.5-0.7-0.6-1.2-0.5c-0.4,0.2-0.6,0.7-0.5,1.1l1,2.6
	c0.1,0,0,0.1,0,0.1c0.8,2.5-3,4.1-4.3,1.2l-2.3-5l2.1-7.9c0.3-1.2-1.4-1.6-1.7-0.5l-2.4,9c0,0.2,0,0.4,0,0.6l3.8,8.6
	C22,45,22,46,21.9,46.9c0,0.3-0.3,0.4-0.5,0.3L20.5,47c-0.2-0.1-0.3-0.2-0.3-0.4c0.1-0.5,0-1.2-0.1-1.6l-3.8-8.6
	c-0.2-0.6-0.3-1.1-0.1-1.7l2.4-9c0.4-1.4,1.8-2.2,3.2-1.8c1.4,0.4,2.2,1.9,1.8,3.3l-1.9,7.2l2.2,4.8c0.3,0.5,1.1,0.2,0.8-0.4
	l-0.9-2.5C23.3,35.1,23.7,33.7,24.8,33z"/>
<path class="st2" d="M43.2,23.8c1.4-0.4,2.9,0.5,3.3,1.8l2.4,9c0.2,0.6,0.1,1.2-0.2,1.7C48.5,37,45,44.9,45,44.9
	c-0.2,0.4-0.2,1.1-0.1,1.6c0.1,0.2-0.1,0.4-0.3,0.5l-0.8,0.2c-0.3,0.1-0.5-0.1-0.5-0.3C43,46,43.1,45,43.4,44.2l3.8-8.5
	c0.1-0.2,0.1-0.4,0.1-0.6l-2.4-9c-0.3-1.1-2-0.7-1.7,0.5l2.1,7.9l-2.3,5c-1.3,2.9-5.2,1.3-4.3-1.2v-0.1l1-2.6c0.2-0.4,0-1-0.5-1.1
	c-0.5-0.2-1,0-1.2,0.5l-1.4,3.7c-0.4,1.1-0.5,2.3-0.2,3.3l1.7,6.3c0.1,0.3-0.1,0.5-0.3,0.5L36.9,49c-0.3,0.1-0.5,0-0.5-0.3l-1.7-6.3
	c-0.4-1.4-0.3-3,0.2-4.4l1.4-3.7c0.4-1.2,2.1-2.3,3.9-1.3c1.1,0.7,1.5,2,1,3.2l-1,2.5c-0.2,0.6,0.6,0.9,0.9,0.4l2.2-4.8l-1.9-7.2
	C41.1,25.7,41.8,24.2,43.2,23.8z"/>
<path class="st2" d="M39,21.8l-5.3-5.2c-0.3-0.3-0.8-0.5-1.2-0.5s-0.9,0.2-1.2,0.5L26,21.8c-0.7,0.7-0.7,1.8,0,2.5l5.3,5.2
	c0.3,0.3,0.8,0.5,1.2,0.5s0.9-0.2,1.2-0.5c0,0,4.6-4.5,5.3-5.2C39.7,23.5,39.7,22.5,39,21.8z M32.5,28.3L27.2,23l5.2-5.2l5.2,5.2
	L32.5,28.3z"/>
</svg>
