<?xml version="1.0" encoding="utf-8"?>
<!-- Generator: Adobe Illustrator 23.0.2, SVG Export Plug-In . SVG Version: 6.00 Build 0)  -->
<svg version="1.1" id="Layer_1" xmlns="http://www.w3.org/2000/svg" xmlns:xlink="http://www.w3.org/1999/xlink" x="0px" y="0px"
	 viewBox="0 0 64 64" style="enable-background:new 0 0 64 64;" xml:space="preserve">
<style type="text/css">
	.st0{fill:url(#SVGID_1_);}
	.st1{fill-rule:evenodd;clip-rule:evenodd;fill:#FFFFFF;}
	.st2{fill:#FFFFFF;}
</style>
<g>
	
		<linearGradient id="SVGID_1_" gradientUnits="userSpaceOnUse" x1="46.6509" y1="836.3079" x2="18.6301" y2="893.0962" gradientTransform="matrix(1 0 0 1 0 -834)">
		<stop  offset="0" style="stop-color:#ED7B28"/>
		<stop  offset="1" style="stop-color:#FF2264"/>
	</linearGradient>
	<path class="st0" d="M1.3,32C1.3,15,15,1.3,32,1.3l0,0C49,1.3,62.7,15,62.7,32l0,0C62.7,49,49,62.7,32,62.7l0,0
		C15,62.7,1.3,49,1.3,32L1.3,32z"/>
</g>
<g>
	<path class="st1" d="M2,32c0,16.6,13.4,30,30,30s30-13.4,30-30S48.6,2,32,2S2,15.4,2,32z M32,0C14.3,0,0,14.3,0,32s14.3,32,32,32
		s32-14.3,32-32S49.7,0,32,0z"/>
</g>
<path class="st2" d="M39.5,24.5c0-3.8-3.2-7-7-7c-3.9,0-7,3.2-7,7h-5.2v16.6c0,2.5,1.9,4.4,4.4,4.4h15.8c2.4,0,4.4-1.9,4.4-4.4V24.5
	H39.5z M32.5,19.2c2.8,0,5.2,2.4,5.2,5.2H27.2C27.2,21.7,29.6,19.2,32.5,19.2z M43,41.1c0,1.5-1.2,2.6-2.6,2.6H24.6
	c-1.5,0-2.6-1.1-2.6-2.6V26.2h3.5v2.6c0,0.5,0.4,0.9,0.9,0.9c0.4,0,0.9-0.4,0.9-0.9v-2.6h10.5v2.6c0,0.5,0.4,0.9,0.9,0.9
	c0.4,0,0.9-0.4,0.9-0.9v-2.6H43V41.1z"/>
</svg>
