<?xml version="1.0" encoding="utf-8"?>
<!-- Generator: Adobe Illustrator 23.0.2, SVG Export Plug-In . SVG Version: 6.00 Build 0)  -->
<svg version="1.1" id="Layer_1" xmlns="http://www.w3.org/2000/svg" xmlns:xlink="http://www.w3.org/1999/xlink" x="0px" y="0px"
	 viewBox="0 0 64 64" style="enable-background:new 0 0 64 64;" xml:space="preserve">
<style type="text/css">
	.st0{fill:url(#SVGID_1_);}
	.st1{fill-rule:evenodd;clip-rule:evenodd;fill:#FFFFFF;}
	.st2{fill:#FFFFFF;}
</style>
<g>
	
		<linearGradient id="SVGID_1_" gradientUnits="userSpaceOnUse" x1="46.7673" y1="836.0718" x2="18.5238" y2="893.3116" gradientTransform="matrix(1 0 0 1 0 -834)">
		<stop  offset="0" style="stop-color:#28D5ED"/>
		<stop  offset="1" style="stop-color:#2253FF"/>
	</linearGradient>
	<path class="st0" d="M1.1,32C1.1,14.9,14.9,1.1,32,1.1l0,0c17.1,0,30.9,13.8,30.9,30.9l0,0c0,17.1-13.8,30.9-30.9,30.9l0,0
		C14.9,62.9,1.1,49.1,1.1,32L1.1,32z"/>
</g>
<g>
	<path class="st1" d="M2,32c0,16.6,13.4,30,30,30s30-13.4,30-30S48.6,2,32,2S2,15.4,2,32z M32,0C14.3,0,0,14.3,0,32s14.3,32,32,32
		s32-14.3,32-32S49.7,0,32,0z"/>
</g>
<path class="st2" d="M30.3,29c0.2,0,0.4-0.2,0.4-0.4v-0.9c0-0.2-0.2-0.4-0.4-0.4H17.2c-0.3,0-0.4,0.2-0.4,0.4v0.9
	c0,0.3,0.2,0.4,0.4,0.4H30.3z M49.6,39.5h-1.3v-5.9c0-0.9-0.4-1.8-1-2.5l-4.6-4.6c-0.7-0.7-1.5-1-2.5-1h-2.4v-2.7
	c0-1.4-1.3-2.6-2.7-2.6H21.2c-1.5,0-2.7,1.1-2.7,2.6v0.9h-3.1c-0.3,0-0.4,0.2-0.4,0.4V25c0,0.3,0.2,0.4,0.4,0.4h13.1
	c0.2,0,0.4-0.2,0.4-0.4v-0.9c0-0.2-0.2-0.4-0.4-0.4h-8.3v-0.9c0-0.4,0.4-0.8,0.9-0.8H35c0.5,0,1,0.4,1,0.8v16.7h-9.7
	c-0.8-1-2-1.8-3.4-1.8c-1,0-1.9,0.4-2.6,0.9v-4.4h-1.8v7.9c0,2.5,1.9,4.4,4.4,4.4c2.4,0,4.4-1.9,4.4-4.4c0-0.3-0.1-0.5-0.1-0.9h10.7
	c-0.1,0.3-0.1,0.6-0.1,0.9c0,2.5,1.9,4.4,4.4,4.4c2.4,0,4.4-1.9,4.4-4.4c0-0.3-0.1-0.5-0.1-0.9h3.2c0.2,0,0.4-0.2,0.4-0.4v-0.9
	C50,39.7,49.8,39.5,49.6,39.5z M22.9,44.8c-1.5,0-2.6-1.1-2.6-2.6c0-1.4,1.1-2.6,2.6-2.6c1.4,0,2.6,1.2,2.6,2.6S24.3,44.8,22.9,44.8
	z M37.8,27.2h2.4c0.4,0,0.9,0.2,1.2,0.5l4.6,4.6c0.1,0.1,0.1,0.1,0.1,0.2h-8.3V27.2z M42.1,44.8c-1.5,0-2.6-1.1-2.6-2.6
	c0-1.4,1.1-2.6,2.6-2.6c1.4,0,2.6,1.2,2.6,2.6C44.8,43.6,43.5,44.8,42.1,44.8z M46.5,39.5h-0.9c-0.8-1-2-1.8-3.4-1.8
	s-2.7,0.7-3.5,1.8h-0.9v-5.2h8.8L46.5,39.5L46.5,39.5z M29,32.1v-0.9c0-0.2-0.2-0.4-0.4-0.4H15.4c-0.3,0-0.4,0.2-0.4,0.4v0.9
	c0,0.3,0.2,0.4,0.4,0.4h13.1C28.8,32.5,29,32.3,29,32.1z"/>
</svg>
